<?xml version="1.0" encoding="utf-8"?>
<!-- Generator: Adobe Illustrator 16.0.0, SVG Export Plug-In . SVG Version: 6.00 Build 0)  -->
<!DOCTYPE svg PUBLIC "-//W3C//DTD SVG 1.1//EN" "http://www.w3.org/Graphics/SVG/1.1/DTD/svg11.dtd">
<svg version="1.1" id="svg--map" xmlns="http://www.w3.org/2000/svg" xmlns:xlink="http://www.w3.org/1999/xlink" x="0px" y="0px"
	 width="743.5px" height="498px" viewBox="0 0 743.5 498" enable-background="new 0 0 743.5 498" xml:space="preserve">
<g>
	<path fill="#DDDDDD" stroke="#DDDDDD" stroke-width="7" stroke-linejoin="round" d="M453.478,347.849l-8.742,11.716l-4.513,9.973
		l-0.969-0.427l5.513-11.252l4.939-7.481L453.478,347.849z M204.855,219.224l-2.594-3.842l1.034-2.985l30.502,3.215l22.95,2.2
		l37.817,3.083l2.279-30.647l2.74-30.776l2.84-38.259l2.969-38.426l0.872,0.064l46.561,3.053l26.415,1.248l-1.725,40.556
		l-0.803,19.097l2.771,0.462l4.611,5.38l2.937-0.92l7.926,0.624l1.591,5.906l5.152,0.098l5.629,2.985l4.509-0.621l2.182,2.691
		l3.102-2.823l4.907,1.509l1.934,3.38l3.594,0.591l1.938,4.233l4.921-4.201l2.084,2.691l12.354,3.478l5.43-2.1l6.303,0.461
		l5.167,2.462l2.018,2.656l4.97-4.527l5.302-1.576l2.492,1.576l6.956-2.953l0.462,1.541l6.298,0.133l1.574-2.594l5.645,2.788
		l3.543,3.645l9.615,3.215l2.297,2.492h8.958l0.329,16.341l0.753,31.305l5.808,6.824l0.266,6.695l2.36,1.509l4.889,9.646
		l0.953,4.922l-0.788,6.104l-4.397,7.81l0.92,3.937l-1.773,3.481l2.234,5.84l-6.104,10.663l2.426,3.184l-7.809,1.541l-12.142,5.58
		l-3.807-1.642l1.083-6.071l-7.219,0.756l-1.378,4.463l2.986,1.738l0.427,5.842l-3.413,4.887l-8.662,7.646l-12.306,7.219
		l-6.02,0.363l-5.17,2.198l-2.035-1.971l-4.576,2.101l1.903,4.038l-7.251,3.185l-9.613,8.858l-8.304,14.272l-4.529,17.259
		l-2.099,0.295l-0.311,4.43l2.541,2.594l0.839,9.416l2.919,2.986l1.492,8.071l3.413,4.038l-5.708,0.756l-0.658,2.622l-4.086-1.507
		l-3.511-4.101l-6.544-1.479l-10.025-0.394l-5.824-4.725l-5.66-0.591l-4.217-4.166l-7.826-1.938l-3.888-12.797l-4.708-5.579
		l0.786-4.658l-1.853-2.953l0.737-6.495l-3.233-4.892l-2.657-0.426l-4.562-4.628l-1.228-5.611l-3.907-5.086l-5.479-4.495
		l-2.346-9.317l-5.891-9.91l-0.788-6.104l-3.1-4.691l-5.415-3.972l-1.164-2.786l-5.201-2.661l-3.772-6.987l-11.519-2.069
		l-6.873-0.165l-5.877-2.72l-1.377,3.017l-6.94,0.526l-4.725,6.201l-2.573,9.221l-3.301,1.049l-3.525,5.447l-4.414-0.228
		l-6.071-5.188l-5.216-2.133l-2.759-2.884l-7.939-3.811l-2.854-4.296l-6.039-4.397l-3.82-9.09l0.587-7.743l-3.967-6.926
		l-0.543-5.543l-2.478-3.741l-9.632-6.201l-4.659-7.45l-4.134-3.017l-4.001-6.5l-6.252-3.807l-3.609-8.561L204.855,219.224z"/>
	<path fill="#F6F4F2" stroke="#999999" stroke-linejoin="round" d="M453.478,347.849l-8.742,11.716l-4.513,9.973l-0.969-0.427
		l5.513-11.252l4.939-7.481L453.478,347.849z M204.855,219.224l-2.594-3.842l1.034-2.985l30.502,3.215l22.95,2.2l37.817,3.083
		l2.279-30.647l2.74-30.776l2.84-38.259l2.969-38.426l0.872,0.064l46.561,3.053l26.415,1.248l-1.725,40.556l-0.803,19.097
		l2.771,0.462l4.611,5.38l2.937-0.92l7.926,0.624l1.591,5.906l5.152,0.098l5.629,2.985l4.509-0.621l2.182,2.691l3.102-2.823
		l4.907,1.509l1.934,3.38l3.594,0.591l1.938,4.233l4.921-4.201l2.084,2.691l12.354,3.478l5.43-2.1l6.303,0.461l5.167,2.462
		l2.018,2.656l4.97-4.527l5.302-1.576l2.492,1.576l6.956-2.953l0.462,1.541l6.298,0.133l1.574-2.594l5.645,2.788l3.543,3.645
		l9.615,3.215l2.297,2.492h8.958l0.329,16.341l0.753,31.305l5.808,6.824l0.266,6.695l2.36,1.509l4.889,9.646l0.953,4.922
		l-0.788,6.104l-4.397,7.81l0.92,3.937l-1.773,3.481l2.234,5.84l-6.104,10.663l2.426,3.184l-7.809,1.541l-12.142,5.58l-3.807-1.642
		l1.083-6.071l-7.219,0.756l-1.378,4.463l2.986,1.738l0.427,5.842l-3.413,4.887l-8.662,7.646l-12.306,7.219l-6.02,0.363l-5.17,2.198
		l-2.035-1.971l-4.576,2.101l1.903,4.038l-7.251,3.185l-9.613,8.858l-8.304,14.272l-4.529,17.259l-2.099,0.295l-0.311,4.43
		l2.541,2.594l0.839,9.416l2.919,2.986l1.492,8.071l3.413,4.038l-5.708,0.756l-0.658,2.622l-4.086-1.507l-3.511-4.101l-6.544-1.479
		l-10.025-0.394l-5.824-4.725l-5.66-0.591l-4.217-4.166l-7.826-1.938l-3.888-12.797l-4.708-5.579l0.786-4.658l-1.853-2.953
		l0.737-6.495l-3.233-4.892l-2.657-0.426l-4.562-4.628l-1.228-5.611l-3.907-5.086l-5.479-4.495l-2.346-9.317l-5.891-9.91
		l-0.788-6.104l-3.1-4.691l-5.415-3.972l-1.164-2.786l-5.201-2.661l-3.772-6.987l-11.519-2.069l-6.873-0.165l-5.877-2.72
		l-1.377,3.017l-6.94,0.526l-4.725,6.201l-2.573,9.221l-3.301,1.049l-3.525,5.447l-4.414-0.228l-6.071-5.188l-5.216-2.133
		l-2.759-2.884l-7.939-3.811l-2.854-4.296l-6.039-4.397l-3.82-9.09l0.587-7.743l-3.967-6.926l-0.543-5.543l-2.478-3.741
		l-9.632-6.201l-4.659-7.45l-4.134-3.017l-4.001-6.5l-6.252-3.807l-3.609-8.561L204.855,219.224z"/>
</g>
<path fill="#F6F4F2" stroke="#999999" stroke-linejoin="round" d="M-8.673,39.529"/>
</svg>
