<?xml version="1.0" encoding="utf-8"?>
<!-- Generator: Adobe Illustrator 16.0.0, SVG Export Plug-In . SVG Version: 6.00 Build 0)  -->
<!DOCTYPE svg PUBLIC "-//W3C//DTD SVG 1.1//EN" "http://www.w3.org/Graphics/SVG/1.1/DTD/svg11.dtd">
<svg version="1.1" id="svg--map" xmlns="http://www.w3.org/2000/svg" xmlns:xlink="http://www.w3.org/1999/xlink" x="0px" y="0px"
	 width="928.25px" height="498px" viewBox="0 0 928.25 498" enable-background="new 0 0 928.25 498" xml:space="preserve">
<g>
	<path fill="#DDDDDD" stroke="#DDDDDD" stroke-width="7" stroke-linejoin="round" d="M668.74,149.64l-1.498-0.615l-0.189-1.452
		l-1.94-1.143l-5.82-18.569l-3.029-9.111l2.209-2.042l1.025-3.431l2.082-2.485l0.615-2.557l-1.198-2.303l-0.032-4.03l1.137-1.641
		l-0.535-4.095l4.432-12.864l1.878-0.079l0.758,2.547l1.642,0.537l2.649-2.438l3.154-1.798l5.333,2.611l4.906,15.705l0.932,3.794
		l4.101,0.236l-0.361,1.491l1.325,1.31l-0.284,1.593l1.372,1.429l2.431-0.758l3.312,4.387l-1.373,2.933l-3.233,2.769l-2.841,0.443
		l0.096,2.295l-2.161,0.741l-2.288,3.005l-0.395-2.5l-4.118,2.895l-1.387-0.236l0.016,4.765l-0.898,1.837l-2.479,0.38l-0.109,1.316
		l-3.503,2.58l-2.066-0.229l-1.436,2.753l1.04,1.427l-1.562,0.939l0.11,2.54l-1.137,0.702L668.74,149.64z M643.421,160.998
		l8.424-1.837l12.194-2.699l1.247-2.207l3.028-1.634l1.104,2.438l0.096,2.161l-1.199,2.548l0.567,1.988l2.304-0.371l2.052,1.933
		l0.252,1.862l1.246,0.173l1.499,2.162l2.021-0.175l3.407-2.065l0.6,1.933l-4.354,1.813l-2.493,2.106l-0.914-2.453l-2.462,2.295
		l0.126,1.429l-1.735,0.717l-1.42-2.318l-0.474-0.426l-1.34-0.711l-1.468-3.249l-4.322,1.261l-0.097-0.188l-17.81,4.086l-0.317-0.48
		L643.421,160.998z M474.315,108.369l0.235,1.499l-3.66,2.603l-1.293-1.097L474.315,108.369z M488.971,151.502l-1.702-1.342
		l0.788-2.169l-2.462,0.008l0.788-2.208l-0.126-2.549l-3.55-3.359l-7.035-0.837l-3.328-1.562l-10.633-2.2l-1.247-2.431l-1.94-0.741
		l3.817-1.791l1.703-1.908l4.103-0.891l8.204-6.587l1.421-1.958l2.271-1.45l2.555,1.506l-2.57,2.138l-2.052,3.652l5.554,0.442
		l2.823,1.191l2.81,3.983l1.355,0.41l2.366-0.884l1.578,1.246l2.901-0.654l1.042-1.381l3.154-2.129l6.562-0.829l4.086-1.578
		l0.475,3.321l2.697,0.884l1.657-0.772l0.93,0.875l1.168-1.341l2.871-0.805l1.168,7.982l-2.589,1.025l-3.061-1.404l-0.109,2.942
		l-1.341-0.087l-2.021-1.743l-3.501-0.883l-1.847,0.214l-1.246,1.986l-2.635,0.78l-2.775-0.156l-1.469,2.706l-1.451,0.678
		l-1.167,2.138l-2.13-1.356l-3.298,1.215L488.971,151.502z M538.083,195.981l-14.515,2.359l-0.111-0.938l-10.663,1.246
		l-11.202,1.104l2.051-2.193l2.305-5.592l0.819-3.408l0.062-3.582l-1.04-5.291l-3.817-7.533l0.835-3.03l-1.198-3.478l2.146-4.442
		l-0.174-5.324l1.419-0.686l-0.016-2.438l2.604-0.939l0.442-1.529l1.373,0.551v2.564l1.371,1.049l1.104-2.816l-0.331-4.96
		l1.499-1.461l1.829-0.292l-1.261-2.91l1.829-2.896l1.356-0.741l3.423,1.617l2.541-0.07l1.293,1.781l2.082,0.032l3.408,1.499
		l1.041-0.173l2.271,3.052l-1.184,1.61l1.672,2.019l0.789,2.382l0.144,5.506l-2.021,1.972l-0.047,2.541l-2.445,1.316l-0.853,3.637
		l0.615,1.089l2.683,0.859l3.518-6.121l3.408-1.925l2.021,0.923l1.262,1.862l1.941,5.893l0.63,3.076l1.704,3.471l-0.41,5.568
		l-1.562,0.97l-1.449-1.261l-0.758,4.614l-1.926,1.973l-0.032,3.345l-1.245,1.254L538.083,195.981z M528.886,135.047l-2.523-0.915
		l1.388-1.752l1.908,1.491L528.886,135.047z M318.525,153.245l-22.772-2.123l-20.667-2.578l-8.536-1.23l-16.462-2.217l-3.55-0.688
		l-1.183,7.685l-2.888-4.639l-2.438,2.437l-2.522,0.371l-0.373-0.892l-2.547,0.229l-1.719-1.003l-1.365,1.562l-3.96-1.246
		l-1.285,1.065l-1.104-0.995l-0.434-4.89l-2.114-0.592l-0.986-1.356l0.576-2.816l-1.042-1.239l-1.568-6.151l0.496-1.121l-1.522-1.83
		l-1.948,1.839l-2.256,1.025l-1.901-2.256l0.442-2.714l1.79-0.82l-0.252-2.974l1.641-4.773l1.751-3.533l-2.958-0.457l0.149-0.97
		l-2.683-2.462l0.237-1.199l-2.871-4.59l-3.432-4.182l0.788-3.96l-2.279-4.646l3.109-14.547l8.029,1.681l14.468,2.888l14.908,2.642
		l10.925,1.846l19.428,2.841l12.463,1.632l16.037,1.839l19.421,1.854l-1.185,14.917l-1.452,16.588l-1.096,12.89l-1.121,13.835
		L318.525,153.245z M193.586,255.238l-2.208,11.775l-1.72,2.241l-1.003-0.063l-1.184-2.178l-2.247-0.566l-2.296,0.504l0.237,3.093
		l-1.097,5.772l0.244,5.334l-1.128,1.86l-10.356-15.524l-7.179-10.836l-11.831-17.819l-7.763-11.707l-10.467-15.752l3.588-13.718
		l4.496-17.613l2.997-11.619l13.719,3.478l17.638,4.007l12.241,2.762l19.374,3.951l-3.407,17.765l-3.605,18.458l-2.847,14.57
		L193.586,255.238z M629.664,210.654l0.662-1.886l2.604-1.813l-0.017-1.184l3.786-3.904l-4.48-2.863l-0.504-1.799l-1.452-0.182
		l-0.52-1.664l1.056-2.99l-1.198-1.514l0.946-0.939l1.23-3.881l1.262-1.521l9.654,3.242l-0.314,4.456l-1.641,1.578l-0.079,2.524
		l3.046,0.141l0.615,1.555l0.504,8.015l-2.131,6.617l-1.797,2.208l-1.151,4.088l-1.8,1.214l0.222-3.407l-2.667-0.126L630.074,214
		l-0.664-2.067l-0.126-0.354L629.664,210.654z M645.376,187.29l1.894,0.56l2.982-0.504l0.931-1.343l3.724-0.748l1.893-0.939
		l2.558-3.084l0.71,1.569l1.83,0.601l-2.619,2.294l-7.825,5.531l-7.589,3.146l-1.482-2.161l0.314-4.456l-9.654-3.242l-0.709-0.939
		l-2.729-0.142l-2.619-4.931l-1.799-0.237l-1.246-1.41l-10.429,2.239l-15.808,3.187l-11.106,2.091l-9.497,1.681l-0.694-3.953
		l5.774-5.293l0.741-2.145l1.783-1.752l-2.178-2.626l-1.342-3.913l5.79-2.736l5.38-0.932h2.382l2.572,1.049l1.372-0.898l4.638-0.844
		l2.398-1.587l2.478-3.218l1.783-0.497l-0.79-3.968l0.79-1.554l-3.125-2.413l0.315-1.538l3.565-3.329l1.04-2.414l4.229-6.23
		l2.335-2.296l8.33-2.035l8.03-2.17l0.899,3.124v2.579l1.276,1.476l0.741,3.25l-0.536,3.605l1.877,3.699l-0.348,2.168l2.257,1.104
		l2.558,11.232l-0.238,10.09l0.316,0.48l1.939,10.98l1.009,1.033l-2.239,2.239L645.376,187.29z M568.657,268.641l16.045-1.879
		l9.086-1.515l11.453-2.082l18.315-3.597l11.942-2.627l2.524,5.467l-1.973-0.457l-3.14,2.443l-2.161,0.711l0.931,1.877l3.346-1.467
		l1.15,1.324l2.225-1.197l1.548,3.358l-0.316,1.799l-1.388,0.378l-2.146,4.149l-4.086,0.221l0.554,1.531l-0.712,2.649l-2.316,2.508
		l0.599,0.521l2.776-1.893l0.126-0.946l2.919,0.442l-2.478,5.883l-2.776-0.235l-4.892,2.396l-3.784,3.818l-2.272,4.039l-0.679,3.913
		l-5.19,1.167l-1.72,1.073l-15.886-11.485l-13.283,1.971l-0.128-1.703l-2.177-2.254l-1.371-0.41L564.743,290l-2.16,0.646
		l-7.289,3.69l-5.995,1.013l-8.33,1.024l-0.062-3.55l3.046-1.422l-0.205-1.592l2.65-2.684l3.201-0.427l2.714-2.822l2.793-1.089
		l2.051-3.676l1.988,0.221l4.133-3.439l2.303,0.205l1.072-2.871l1.673-1.894L568.657,268.641z M554.238,243.271l-3.172-2.146
		l-0.899-2.311l-2.539,2.319l-1.61,0.679l-2.775-1.263l-1.516,1.333l-2.412-1.617l-4.056-0.196l-1.388-2.832l-1.799-1.412
		l-2.035,0.836l-2.161-0.165l-1.137-10.468l-1.608-14.53l-1.562-13.157l14.515-2.359l4.464,1.444l1.578,0.994l2.303-0.363
		l2.855,1.641l4.78-2.705l2.967-0.024l2.871-3.241l4.195-3.337l4.971-2.689l3.201,19.562l-1.451,1.198l1.355,3.645l-0.946,3.81
		l0.255,1.508l-0.885,3.415l0.126,1.955l-3.219,4.039l-2.65,0.072l-0.979,2.287l-1.894,1.633l0.223,3.154l-0.995,1.492l-1.688-2.059
		l-1.861,3.753l0.79,2.904l-1.121,0.41l-0.079,1.939L554.238,243.271z M630.326,208.769l-2.319-0.008l-1.499,2.028l-18.427,3.849
		l-22.103,4.078l-11.5,1.956l-2.209-13.409l-3.202-19.562l7.335-5.602l0.693,3.953l9.498-1.681l11.106-2.091l15.808-3.187
		l10.428-2.239l1.246,1.41l1.799,0.237l2.619,4.931l2.729,0.142l0.709,0.939l-1.262,1.521l-1.23,3.881l-0.946,0.939l1.198,1.514
		l-1.056,2.99l0.52,1.664l1.452,0.182l0.504,1.799l4.48,2.863l-3.786,3.904l0.017,1.184L630.326,208.769z M670.429,173.114
		l-1.986,0.836l0.566-3.154L670.429,173.114z M668.535,170.37l-1.734,1.19l0.63,2.746l-0.788,1.655l-3.345,1.728l0.315-1.529
		l-2.208-8.489l4.321-1.261l1.469,3.249L668.535,170.37z M568.657,268.641l-0.332,2.696l-1.673,1.894l-1.072,2.871l-2.303-0.205
		l-4.133,3.439l-1.988-0.221l-2.051,3.676l-2.793,1.089l-2.714,2.822l-3.202,0.427l-2.649,2.684l0.205,1.592l-3.046,1.422
		l0.062,3.55l-15.207,1.813l-14.924,1.451l-15.966,1.182l0.079,0.158l-14.688,1.151l-10.429,0.632l1.184-0.521l1.373-3.075
		l-0.995-0.441l0.158-2.65l5.146-7.51l-0.979-1.072l1.516-1.956l0.74-3.724l-0.488-1.83l0.662-0.047l0.788-0.049l15.902-1.229
		l-0.425-2.62l2.555,0.441l15.618-1.734l7.888-0.363l7.415-0.867l7.573-0.474l9.924-1.042l0.126-0.299l9.118-1.104L568.657,268.641z
		 M390.961,406.901l-4.203,5.633l-2.17,4.795l-0.466-0.205l2.649-5.41l2.375-3.597L390.961,406.901z M271.426,345.061l-1.247-1.848
		l0.497-1.436l14.665,1.546l11.034,1.058l18.183,1.482l1.097-14.735l1.316-14.797l1.365-18.396l1.428-18.475l0.419,0.031
		l22.387,1.468l12.699,0.601l-0.828,19.498l-0.387,9.183l1.332,0.222l2.218,2.587l1.411-0.442l3.812,0.301l0.765,2.84l2.479,0.047
		l2.706,1.436l2.168-0.299l1.049,1.295l1.491-1.357l2.358,0.727l0.931,1.625l1.728,0.283l0.932,2.035l2.366-2.02l1.002,1.293
		l5.939,1.672l2.609-1.01l3.03,0.223l2.484,1.184l0.97,1.277l2.39-2.178l2.55-0.758l1.197,0.758l3.346-1.42l0.222,0.741l3.028,0.063
		l0.757-1.247l2.714,1.341l1.703,1.752l4.623,1.546l1.104,1.198h4.308l0.157,7.855l0.362,15.051l2.792,3.281l0.128,3.219
		l1.135,0.727l2.352,4.639l0.458,2.365l-0.379,2.936l-2.114,3.755l0.442,1.893l-0.854,1.675l1.074,2.808l-2.936,5.127l1.166,1.53
		l-3.754,0.74l-5.838,2.684l-1.83-0.789l0.521-2.919l-3.472,0.362l-0.661,2.146l1.436,0.836l0.205,2.809l-1.641,2.351l-4.165,3.676
		l-5.916,3.471l-2.896,0.176l-2.484,1.057l-0.979-0.947l-2.2,1.01l0.915,1.941l-3.485,1.531l-4.622,4.259l-3.992,6.862l-2.178,8.298
		l-1.01,0.142l-0.148,2.13l1.222,1.247l0.403,4.527l1.402,1.436l0.719,3.882l1.641,1.94l-2.744,0.363l-0.315,1.261l-1.966-0.725
		l-1.688-1.973l-3.146-0.711l-4.819-0.188l-2.8-2.271l-2.723-0.283l-2.026-2.003l-3.764-0.933l-1.869-6.152l-2.264-2.683
		l0.378-2.239l-0.891-1.42l0.354-3.123l-1.555-2.352l-1.277-0.205l-2.192-2.225l-0.59-2.698l-1.88-2.445l-2.634-2.161l-1.128-4.479
		l-2.832-4.765L342,390.32l-1.49-2.256l-2.604-1.908l-0.561-1.34l-2.501-1.279l-1.812-3.359l-5.538-0.994l-3.305-0.08l-2.825-1.308
		l-0.662,1.45l-3.337,0.253l-2.271,2.981l-1.236,4.434l-1.588,0.504l-1.694,2.619l-2.122-0.109l-2.919-2.494l-2.508-1.024
		l-1.326-1.388l-3.817-1.832l-1.372-2.064l-2.903-2.114l-1.837-4.37l0.282-3.723l-1.907-3.33l-0.261-2.665l-1.191-1.799
		l-4.631-2.981l-2.24-3.582l-1.987-1.449l-1.924-3.125l-3.006-1.83l-1.735-4.116L271.426,345.061z M193.586,255.238l4.197-21.826
		l2.847-14.57l3.605-18.458l3.407-17.765l19.94,3.589l12.069,1.918l-2.343,14.671l5.916,0.972L259,205.986l-2.279,16.493
		l-1.523,11.004l-1.821,12.47l-0.024,1.674l-2.422,17.117l-16.344-2.383l-10.72-1.752l-17.874-3.021L193.586,255.238z
		 M143.804,72.375l-1.632,0.254l1.979,3.699l-2.225-0.592l0.418-1.791l-1.159-1.389l1.672-2.145L143.804,72.375z M190.06,118.719
		l-20.587-4.891l-1.61,0.615l-4.03-0.671l-4.71,0.119l-2.8,0.757l-3.021-0.41l-1.121-0.979l-5.939,0.529l-0.103-1.049l-2.935-1.61
		l-2.815-0.48l-4.97,1.032l-4.631-3.027l0.75-4.403l-0.379-1.987l-1.641-2.012l-1.782,0.071l-2.139-2.391l-1.529-1.096l-1.736,0.417
		l-1.728-1.38l1.2-2.2l1.608-0.623l-1.104-3.542l0.615-1.696l1.893-0.961l-1.853-1.334l0.331-3.999l-0.489-1.175l0.615-5.792
		l-1.262-2.522l0.56-4.339l1.822-2.462l1.648,1.997l3.874,3.052l4.717,2.138l2.422-0.087l0.844,1.515l3.312,0.671l-0.394,1.83
		l1.246,1.758l-0.955,4.142l-1.294,2.896l-3.297,2.871l0.829,0.536l2.216-2.207l2.178-0.271v-3.438l1.19-3.18l2.413-2.657
		l-0.891-1.736l0.592-2.24l-1.254-2.177l0.275-1.443l1.72-0.899l-0.032-2.296l-2.231-2.666l0.766-1.555l9.426,2.755l16.486,4.377
		l18.939,4.678l9.229,2.122l-3.833,16.43l-3.202,14.428l-1.729,6.823l0.741,2.943L190.06,118.719z M459.627,191.896l-0.977-1.933
		l-3.629-1.207l-1.074-2.429l-0.504-3.36l1.136-1.838l-1.751-1.562l-0.144-1.98l-0.488-4.023l-2.225-3.233l-1.481-0.34l-3.219-2.413
		l-0.442-1.585l-3.25-1.76l-1.437-1.68l-2.145-0.087l-2.762-2.619l0.474-2.729l-0.222-5.214l1.074-2.256l-2.511-1.847l0.079-2.098
		l1.547-2.681l3.598-1.895l0.567-0.884l-0.315-8.061l1.956-1.886l0.79,0.584l1.954,0.158l3.124-1.121l6.595-3.28l0.916,0.97
		l-1.198,1.988l1.387,1.562l3.471,0.954l1.941,0.741l1.247,2.431l10.633,2.2l3.328,1.562l7.035,0.837l3.55,3.359l0.126,2.549
		l-0.788,2.208l2.462-0.008l-0.788,2.169l1.702,1.342l-0.252,1.798l-1.926,0.536l-1.829,5.814l1.199,0.354l1.578-1.711l1.388-3.007
		l1.988-1.135l1.402-4.007l2.036-1.019v1.979l-1.263,1.901l-2.366,6.365l-0.474,3.44l0.458,2.065l-1.215,1.224l-0.647,3.368
		l0.552,2.935l-1.641,6.468l0.602,3.683l1.672,3.086l-0.126,4.282l-10.54,0.86L459.627,191.896z M633.355,236.195l-2.745-1.317
		l-2.193-3.13l-2.762,0.496l-2.003-7.288l1.185-0.293l-0.222-2.532l-1.736-1.837l0.506-2.738l1.86-1.119l-0.884-1.042l-3.471,4.543
		l1.104,2.573l-0.931,2.437l1.057,4.859l1.861,1.728l1.516,3.454l-2.336,0.576l-0.946-1.033l-3.881-0.348l-1.546-2.011l-1.895,1.649
		l-1.057-1.61l1.151-2.555l0.536-2.478l1.136-1.751l-1.734-1.214l-0.726,1.079l-5.111-2.193l0.567-1.293l-3.203-0.852l-1.31-2.279
		l-4.858-2.153l-1.673,1.119l-1.011,2.043l-3.816-0.599l-1.294,2.681h-1.642l-1.704,2.746l-1.938,1.775l-1.23-7.573l22.103-4.078
		l18.427-3.849l4.985,18.048l7.192-1.42l-0.771,6.585l-4.197,1.437L633.355,236.195z M539.724,355.865l-18.963,2.177l-13.473,1.168
		l-0.27,1.988l3.093,2.557l0.188,3.218l-1.072,2.698l-1.703,0.599l-3.359-2.066l-0.647-3.612l-0.93-0.331l-0.963,2.684l-0.222,2.775
		l-3.328-0.427L495.345,347l0.349-17.511l0.268-14.216l0.331-12.856l-1.34-1.437l-0.079-0.158l15.966-1.182l14.924-1.453
		l2.683,9.498l5.867,21.172l3.44,6.15l-0.284,1.516l1.42,0.664l-1.861,2.178l0.315,1.797l-0.758,2.62l1.734,4.228l-0.457,3.96
		L539.724,355.865z M106.92,438.218l0.275,0.441l-1.151,0.062l-0.126-0.425l0.473-0.441L106.92,438.218z M103.97,438.533
		l0.387,0.741l0.923-0.362l0.314,1.119l-1.396,0.521l-0.245,0.474l-0.986,0.314l-0.496-0.188l-1.941,0.646l-0.615-0.489l2.454-0.535
		l0.48-1.169l-0.275-0.409l0.434-0.536L103.97,438.533z M98.755,441.389l-1.097,0.933l-0.765-0.38l0.126-0.553l1.184-0.488
		l0.402-0.693l1.12-0.237l0.575,0.363l-0.284,0.632L98.755,441.389z M42.938,422.884l0.07-0.979l1.279,0.741l0.362,0.567
		l-0.679,0.395l-0.805-0.235L42.938,422.884z M189.295,414.223l0.97-0.143l0.331-0.536l1.176,0.474l1.349,0.048l0.316,0.599
		l-0.284,0.363l0.489,0.441l0.686,1.198l-0.639,0.38l-1.609-0.601l0.378,1.024l-0.291,0.521l-0.536-0.048l-1.151-0.932l-0.688-0.819
		l-0.669-0.349l-0.158-0.757L189.295,414.223z M193.894,413.164l1.144-0.268l-0.165,0.962l0.97,1.104l0.655,0.426l0.56,1.215
		l-1.168,2.114l-0.315,0.096l-0.268-1.343l-0.434-1.04l-0.624-0.932l-0.693-1.83l-0.505-0.474l0.402-0.41L193.894,413.164z
		 M137.533,432.286l0.465,0.062l-0.181,1.073l-0.757-0.126l-0.119-0.378L137.533,432.286z M123.201,434.4l-0.096,1.088l-0.836-0.363
		l-0.031-0.694l0.474-0.378L123.201,434.4z M206.641,424.65l0.86,0.331l0.103,0.837l-0.585,0.283L206.641,424.65z M202.191,425.376
		l-1.309-0.742l0.465-1.056l-0.639-0.728l-0.805,0.615l-0.56-0.062l0.457-1.119l-0.545-0.979l1.318-0.188l0.741,0.821l1.324,0.63
		l0.679,0.537l0.3,1.323l0.64,0.047l0.827,0.711h0.403l0.899,2.257l-0.049,0.506l-0.812,0.173l-0.545-0.867l-0.709-0.049
		l-0.284-0.709l-0.939-0.331l-1.009,0.063l-0.245-0.284L202.191,425.376z M192.245,418.213l0.615,0.773v0.679l-0.568,0.284
		l-0.354-1.531L192.245,418.213z M146.565,422.567l-0.214,0.379l0.387,0.614l0.575-0.016l-0.513,1.025l-0.473-0.031l-0.474,0.788
		l-0.686,0.127l0.213,0.552l-1.988,0.727l-0.284,0.727l-0.765,0.662h-0.513l-0.229-0.662l-0.837-0.601l-0.023-1.072l-0.489-0.868
		l0.254-0.741l1.111-0.772l0.67,0.079l0.127-0.852l0.583-0.41l0.711,0.487l0.891-0.788l0.907,0.205l1.018-0.158L146.565,422.567z
		 M201.767,419.129l-0.553,0.788l-0.766,0.111l-0.196,0.473l-0.648-0.032l-0.583,0.427l-0.827-1.672l-1.113-0.853l0.331-0.473h1.538
		l0.687-0.223l0.742,0.758L201.767,419.129z M141.091,429.021l-0.939,0.852l-0.189-0.157l0.766-0.836L141.091,429.021z
		 M200.883,420.327l0.623-0.299l0.489,0.835l-0.529,0.347l-0.654-0.282L200.883,420.327z M192.401,417.188l0.262-0.378l1.144,0.457
		l0.583-0.126l0.261,0.79l1.506,2.822l-0.007,0.521l0.497,1.325l-0.418,0.284l-1.648-1.879l-0.829-0.457l-0.062-1.246l-1.46-1.309
		L192.401,417.188z M198.35,423.136l-0.308,0.096l-0.583-1.343l0.166-0.457l-1.025-1.276l-0.222-0.554l0.773-0.725l1.145,0.504
		l0.401,0.82l-0.474,0.693l0.553,1.295l-0.56,0.473L198.35,423.136z M107.424,390.084l1.247,0.553l-0.553,0.631l-1.167-0.283
		l-0.845,0.931l-0.261-0.806l-0.946-1.323l-0.953-0.933l-0.513-0.188l-0.963,0.363l-0.521-0.442l-0.087-0.679l0.797-0.805
		l1.404,0.931l1.073-0.378l0.765,0.646l-0.039,0.631L107.424,390.084z M158.404,407.565l-0.038,1.103l-0.27,1.153l-0.513-0.349
		l0.3-1.324L158.404,407.565z M112.535,407.833l0.135,1.42h-1.151l-0.575,0.473l-0.499-0.631l-0.457-0.062l-0.812-0.899
		l-0.781-0.552l-0.07-0.741l1.207,0.237l0.536-0.427l1.562-0.189l0.149,0.427l0.906,0.252L112.535,407.833z M156.196,411.004
		l-0.836,0.205l-1.476-0.852v1.01l-0.86,0.52l0.254,0.694l-0.916,0.301l-0.03,0.395l-1.24,0.805l-0.361,0.016l-0.489,1.026
		l-0.773,0.188l-0.553-0.221l-0.765,0.505l-0.615-0.473l0.205-0.884l1.072-0.302l0.513-0.439l-1.593-1.089l0.379-1.325l0.686-0.947
		l0.323-1.734l-0.394-0.898l0.859-0.379l1.632-1.388l0.86,0.614l0.702-0.632l-0.852-0.631l0.198-0.427l-1.191,0.049l-0.442-0.254
		l-0.907,0.632l-0.323,0.694l-0.773,0.221l-0.757,0.853l-0.103,0.614l-1.128,1.215l0.213,0.568l-0.979,0.946l0.165,0.726
		l-0.338,0.82l-0.758,0.158l-0.109,1.009l-1.271,0.348l-0.568,0.442l0.095,0.566l-1.025,0.348l-0.197,1.546l1.316-0.031l0.946,0.788
		l-0.275,1.074l-0.615,0.504l-0.583,0.032l-0.435,0.6l0.158,0.583l-0.48,0.3l0.094,0.521l-0.527,0.646l-1.879,0.457l-0.205,0.694
		l-1.23,0.378l-0.543,1.216h-0.639l-0.167,0.536l-0.875,0.094l-0.032,1.2l-0.646,1.01l-0.568-0.236l-1.301,1.277l-0.474-0.521
		l-0.561,0.79l0.261,0.425l-1.065,0.268l-0.182,0.428l-1.237-0.126l-0.506,0.693l0.79,0.315l-0.623,0.853l-1.318,0.504l-0.196,0.348
		l-2.051,0.459l-0.702-0.205l-0.86,0.852l-0.789,0.222l-0.252,0.474l-0.954,0.188l-0.205-0.409l-1.153,0.758l-0.804-0.126
		l0.575-1.247l-0.646-0.079l-0.419,1.042l-1.269,1.577l-1.539,0.109l-0.876,0.348l-0.552-1.025l-0.48,0.284l0.496,0.583
		l-1.097,0.585l0.757,0.504l-1.514,0.38l-1.468-0.269l-0.914,0.662l-0.908,0.236l-0.583-0.221l-0.175-0.854l0.773-0.314l0.655-1.072
		l0.608,0.062l1.427-0.536l1.049,0.094l1.995-0.425l0.064-0.458l1.143-0.378l-0.094-0.475l1.033-1.042l1.38-0.851l1.562-0.316
		l2.217,0.854l-0.149-0.728l0.741-1.37l1.625-1.218l1.468-0.52l1.096-0.854l0.82,0.38l0.159-1.39l0.788-0.993l1.058-0.646
		l0.946-1.025v-0.566l0.44-2.052l0.506-0.236l-0.371-0.554l0.315-1.166l1.058-0.979l-0.071-0.837l-2.793,1.151l-1.568-1.388
		l-0.34,0.692l0.363,1.264l-0.553,0.457l-0.427-0.205l-0.732-1.83l-0.64-0.474l-0.741,0.301l-0.993-0.963l-0.047-0.631l-2.746,1.372
		l-0.126,0.395l-1.098,0.222l-0.41-0.348l0.521-0.553l-0.023-1.437l-0.419-1.118l1.042-1.089l-0.741-2.446l-0.734-1.403
		l-0.252,0.979l-1.814,0.566l-1.01,0.095l-1.396-0.409l-0.047-0.979l-0.442-0.348l-0.606-1.23l-0.963-0.883l-0.221-0.819
		l0.876-0.601l0.04-0.772l-0.664-1.137l-0.576-0.331l0.072-0.852l-0.442-0.19l-0.474-1.829l0.301-0.914h1.191l-0.238-0.82
		l0.324-0.631l1.813-1.8l0.688-0.141l-0.087-1.026l0.82-1.498l0.567-0.506l0.694-0.142l0.893,0.379l0.827,1.024l0.655-0.016
		l0.907-0.711l1.135-1.246l1.673,0.379l0.915-0.174l0.979-1.277l-0.222-2.412l-0.48-0.744l-0.584-0.346l0.355-0.537l0.623,0.269
		l0.671-0.521l0.094-0.537l-0.679-1.135l-0.583,0.692l-0.615-0.142l-1.16,0.426l-0.914,0.646l-0.292,0.709l-1.011-1.449
		l-0.986,0.269l-1.806-0.188l-1.396,0.361l-2.516-1.23l-0.394-0.852l0.275-0.693l-0.48-0.662l0.235-0.633l0.773-0.693l-0.363-0.41
		l-1.869-0.758l-1.081-1.088l0.062-0.553l1.31-0.44l1.697-0.867l2.35-1.026l2.407-0.662l1.293-0.063l0.654,0.315l-0.6,1.783
		l0.205,0.693l2.123,0.143l0.709,0.409l1.136,0.188l0.733-1.039l1.145,0.142l-0.222-0.536l-1.442-0.71l-0.489-1.325l-0.623-0.379
		l-0.096-0.805l0.608-0.126l0.497,0.867l-0.198,0.661l0.884,1.186l0.536-0.143l-0.97-1.277l0.536-1.263l-0.213-0.489l-1.263,0.189
		l-0.513-0.441l-0.805-0.032l-1.222-0.63l0.063-0.648l-0.387-1.75l-2.327-2.84l-0.703-0.396l-0.322-0.709l-0.985-0.867l0.662-0.142
		l0.41-0.664l0.323-1.578l1.616,0.41l2.044-0.03l1.482-0.884l0.946-1.041l0.38-1.752l1.151-1.12l0.079-0.331l1.096-1.119l1.16,0.282
		l1.443-0.82l1.608-1.575l1.713,0.156l1.079-0.156l0.955-0.537l1.255-1.641l1.237,0.282l0.079,0.348l0.734,0.032l0.117,0.457
		l-0.884,0.898l0.23,0.349l0.639-0.144l0.062-0.426l0.772-1.01l0.79,0.805l-0.143,0.6l0.797,0.521l0.504-0.599l1.121-0.19
		l1.688,0.379l-0.244,1.169l1.058,0.299l0.473,0.535l1.38-0.361l1.152,0.269l1.111-0.506l2.028,0.916l0.244-0.237l0.979,0.664
		l3.368-0.111l1.602,0.758l0.59-0.143l1.129-0.979l0.718-0.174l1.404,0.27l2.644,1.311l0.812,0.109l1.128,5.695l2.643,13.331
		l3.723,18.771l0.442,2.242l1.381,6.94l1.246,0.188l0.063-0.474l1.333,0.378l0.551-0.93l1.499-0.428l0.024,1.405l1.45,0.615
		l0.364,0.662l3.209,2.019l0.821,1.578l1.263-1.672l0.615-0.19l0.133-0.662l-0.259-0.913l0.434-0.111l-0.103-0.836l0.709-0.396
		l0.979-1.01l1.467,0.854l0.095,0.709l0.466,0.631l0.702-0.017l1.128,0.805l0.592,0.758l1.245,0.331l1.642,1.104l-0.143,0.27
		l2.382,2.177l2.644,2.524l-0.119,0.693l0.916-0.096l0.095,0.946l0.788,0.096l0.442,0.963l0.663-0.301l1.68,0.538l0.884-0.097
		l1.065,0.315l0.282,0.426l0.916-0.205l0.568,0.885l-0.063,0.853l0.395,0.867l0.938,1.277l-0.332,2.113l-0.606,1.104l-0.758,0.126
		l-1.199-1.768l0.402-0.819l-0.41-0.284l-0.188,1.135l-1.238-0.077l-2.241-0.819l-0.354-1.025l-0.702-0.19l-0.513-0.835l-0.418,0.3
		l-0.505-0.853l0.314-0.758l0.498-0.173l-0.379-0.647l0.056-0.836l-1.634-0.553l-0.78-0.884l-1.744-0.143l-0.117-0.931l-1.088-1.594
		l-2.021-1.973l-1.317,0.143l-1.333-1.577l-0.583,0.363l0.748,1.214l0.057,0.567l-0.537-0.016l-1.167-0.709l-0.671,0.44
		l-0.205-1.057l-0.529-0.506l-0.346,0.632l0.732,1.041l-1.206,1.184l-1.167-0.633l-0.333,0.176l-1.86-0.82l-0.829-0.632l-0.126-0.44
		l-1.168-0.727l-0.946-0.157l-0.874-0.426l-1.42-0.363l-1.051-0.646l0.521-0.964l-0.955-0.441l-1.057,0.916l-1.68,0.095
		l-2.737-0.853l-1.641-0.096l-0.946,0.111l-1.934,0.646l-0.465,0.301l-0.631-0.506l-1.287-0.235l-0.543-0.506l-0.245-0.757
		l-0.449,0.062l-0.726,0.664l-1.104-0.568l-0.378-0.679l-0.68-0.489l-0.938-0.143l-0.797-0.883l-0.97,0.158l-0.562,0.426
		l-1.01,0.109l-1.396,0.68l1.088,1.184l0.111,0.504l-0.733,0.962l0.583,0.475l-0.157,0.567L156.196,411.004z M79.122,441.342
		l0.078-0.506l0.789,0.175l0.103,0.552l-1.767,0.694l-0.536-0.426L79.122,441.342z M60.854,436.482l-0.568,0.174l-0.173-0.694
		l0.613,0.047L60.854,436.482z M54.708,433.391l-0.339,0.41l-0.805,0.047l-0.284-0.41L54.708,433.391z M67.778,440.143l-0.347,0.396
		l-0.749-1.247l0.891,0.017L67.778,440.143z M71.052,440.836l0.127-0.473l0.702,0.11l-0.324,0.679l0.907,0.173l-0.213,0.615
		l-0.662-0.314l-0.908,0.347l-0.156-1.009L71.052,440.836z M146.982,420.359l-0.047,0.535l-0.82,0.127l-1.018,0.693l-1.285-0.363
		l0.993-1.294l0.6-0.108l0.402-1.23l0.474,1.072l1.436,0.095l-0.284,0.914L146.982,420.359z M160.938,409.062l-0.324-0.772
		l0.275-0.521h0.601l0.213,0.646L160.938,409.062z M158.059,411.84l-0.111-0.536l1.972-2.683l0.175,0.474l-0.893,1.2l-0.165,0.914
		L158.059,411.84z M204.432,428.767l-0.48-0.047l-1.648-1.545l-0.175-0.758l0.331-0.095l1.089,1.421l0.568,0.299L204.432,428.767z
		 M250.932,264.743l-2.264,16.423l-2.76,19.939l-2.943,21.313l-1.979,14.31l-1.578,11.061l-9.624-1.404l-15.374-2.318l-15.255-8.819
		l-8.338-4.796l-19.018-11.501l1.783-2.997l2.429-0.126l1.198-2.114l-0.361-1.83l-2.044-1.263l0.853-2.556l-0.165-1.987l2.792-1.767
		l0.788-2.02l0.182-3.439l1.948-2.336l3.778-1.64l-1.861-3.14l-0.884-4.135l-1.388-2.604l0.339-1.987l1.128-1.86l-0.244-5.334
		l1.097-5.772l-0.237-3.093l2.296-0.504l2.247,0.566l1.184,2.178l1.003,0.063l1.72-2.241l2.208-11.775l12.408,2.35l17.874,3.021
		l10.72,1.752L250.932,264.743z M475.72,287.492l0.979,1.072l-5.146,7.51l-0.157,2.65l0.994,0.441l-1.373,3.075l-1.184,0.521
		l0.773,1.295l-1.861,1.229l-0.521,2.051l-1.42,0.457l0.475,3.55l-3.093,2.571l-1.216,2.382l0.759,1.168l-3.724,5.646l1.198,3.346
		l0.773,4.182l-0.82,2.161l-19.957,0.662l-15.271,0.347l-0.157-7.855h-4.308l-1.104-1.198l0.142-14.846l0.128-11.153l-2.462-16.312
		l17.479-0.41l20.067-0.788l14.607-0.757l1.229,2.791l-3.392,4.781L475.72,287.492z M112.188,282.411l2.54,0.096l0.45,1.531
		l-1.909,0.235L112.188,282.411z M100.79,156.013l5.009,1.515l14.097,3.953l13.938,4.125l10.837,2.816l-2.997,11.619l-4.496,17.613
		l-3.588,13.718l10.467,15.752l7.763,11.707l11.831,17.819l7.179,10.836l10.356,15.525l-0.339,1.986l1.388,2.604l0.884,4.135
		l1.861,3.14l-3.778,1.64l-1.948,2.336l-0.182,3.439l-0.788,2.02l-2.792,1.767l0.165,1.987l-0.853,2.556l2.044,1.263l0.361,1.83
		l-1.198,2.114l-2.429,0.126l-16.273-1.939l-13.237-1.562l-1.009-2.777l0.622-2.476l-0.103-3.756l-1.427-3.549l-5.601-7.336
		l-3.755-1.059l0.608-1.389l-0.884-3.028l-3.447-0.442l-4.308-3.279l-0.252-1.689l-2.761-3.14l-3.707-0.884l-2.832-1.719
		l-3.943-0.646l-1.531-2.43l1.412-3.646l-0.489-1.071l1.247-3.015l-2.509-2.587l0.898-2.114l-1.309-1.262l-1.223-2.99l-1.215-0.765
		l-0.096-1.869l-2.736-7.116l-1.641-2.13l0.261-2.681l2.981-4.079l-0.853-2.95l-2.09-0.243l-2.335-4.323l0.671-2.352l-0.584-2.665
		l1.064-3.708l1.31-0.103l-0.355,3.306l2.391,1.972l0.096-2.429l-1.405-2.21l1.79-3.494l-1.088-1.956l-1.159,0.323l-1.317,4.062
		l-3.92-4.371l0.592-3.501l-0.908-3.069l-1.768-2.294l-0.599-2.257l-2.185-4.022l0.931-1.886l-0.063-4.866l1.403-2.392l0.284-4.242
		l-1.601-4.687l-1.973-3.075l0.245-2.652l4.599-5.394l1.104-3.771l2.311-3.889l0.229-4.599l-0.749-0.876L100.79,156.013z
		 M331.864,272.979l-11.146-0.854l-15.438-1.166l-21.558-2.1l-23.625-2.887l-9.167-1.229l2.422-17.117l0.024-1.674l1.821-12.47
		l1.523-11.004l2.279-16.493l15.555,1.986l15.374,1.854l14.869,1.499l8.772,0.701l13.038,1.026l8.93,0.606l-0.946,14.798
		l-1.064,17.583l-0.679,11.382L331.864,272.979z M645.376,187.29l-1.167-1.469l2.239-2.239l-1.009-1.033l-1.939-10.98l17.81-4.086
		l0.097,0.188l2.208,8.489l-0.315,1.529l-3.359,0.868l-2.004,1.411l-5.585,1.104l-1.908,2.518l-2.414,1.27L645.376,187.29z
		 M629.664,210.654l-0.854,1.538l0.662,1.893l2.146,1.783l1.262,3.629l3.062,3.091l1.356,0.254l1.388,4.575l-7.193,1.42
		l-4.985-18.048l1.499-2.028l2.319,0.008L629.664,210.654z M615.527,227.18l-1.324-1.886l0.726-1.079l1.734,1.214L615.527,227.18z
		 M509.228,369.671l1.072-2.698l-0.188-3.218l-3.093-2.558l0.27-1.987l13.473-1.168l18.963-2.177l2.225,4.039l21.803-1.482
		l11.563-0.79l1.012,2.968l1.497-0.314l-0.047-3.395l-0.662-2.19l0.93-1.343l3.093,0.773l3.472-0.031l1.704,6.247l2.729,6.847
		l5.127,8.678l7.257,9.023l-0.693,0.819l0.979,4.545l3.188,4.731l2.557,4.923l2.949,4.844l1.355,3.076l0.442,3.282l0.3,7.098
		l0.457,4.545l-1.403,1.04l-0.567,3.817l0.6,1.089l-0.867,2.083l-3.281,1.529l-5.489,1.861l-1.484-1.293l0.237-2.366l-3.943-5.807
		l-2.649-0.82l-2.493,0.284l-2.257-5.363l-1.277-1.752l-3.438-2.587l0.757-2.539l-2.65,1.04l-5.079-7.257l-1.925-1.878l3.061-6.215
		l-1.877-0.347l-0.979,2.617l-1.326,0.222l-1.812-2.382l1.104-10.57l-1.515-3.644l0.427-0.711l-2.289-3.582l-2.208,0.017
		l-2.429-1.324l-0.837-1.83l-2.509-1.073l-0.473-2.178l-1.674-0.6l-1.562-2.209l-5.315-2.555l-4.086,1.184l-0.963,2.019
		l-4.922,3.361l-5.522,1.308l-0.062-1.434l-1.529-1.958l-6.422-3.375l-5.521-1.61l-4.259-0.076L509.228,369.671z M596.233,441.799
		l2.192-1.656l1.199,1.421L596.233,441.799z M584.606,354.1l-3.472,0.031l-3.093-0.773l-0.93,1.343l0.662,2.19l0.047,3.395
		l-1.497,0.314l-1.013-2.968l-11.562,0.79l-21.803,1.482l-2.225-4.039l-1.861-3.896l0.457-3.96l-1.734-4.228l0.758-2.62
		l-0.315-1.797l1.861-2.179l-1.42-0.662l0.284-1.517l-3.44-6.151l-5.867-21.17l-2.683-9.498l15.207-1.813l8.33-1.024l5.995-1.013
		l-2.13,3.44l0.048,1.607l4.418,2.541l1.734-0.033l2.335,4.277l2.288,2.713l3.423,1.688l1.594,2.319l3.802,2.239l0.097,1.451
		l2.35,2.397l3.629,1.705l1.215,2.397l0.505,3.028l1.86,0.789l2.289,2.869l0.678,3.22l3.028,0.726l-2.224,5.458l-0.144,2.699
		l-0.93,2.351l0.205,2.397l-1.168,1.215L584.606,354.1z M230.881,394.518l1.83,1.547l-0.513,2.209l-1.546,1.276l-4.283-1.625
		l0.387-2.364l2.042-1.201L230.881,394.518z M249.631,403.021l1.301-1.025l1.769,3.724l2.578,2.305l-2.343,0.599l-1.042-0.979
		l-2.957,0.349l-1.894-4.086L249.631,403.021z M260.77,409.127l5.363,0.883l-0.126,1.672l-2.841-0.804h-3.202L260.77,409.127z
		 M264.152,413.448l1.547,0.205l1.237,1.548l-2.224,1.103L264.152,413.448z M269.65,412.062l1.854,1.908l2.089-0.82l4.457,2.225
		l-0.67,2.081l-4.512,1.138l-0.923-0.457l-0.252-2.541l-2.352-0.567l-0.931-1.452L269.65,412.062z M281.176,423.42l7.074,3.312
		l2.564,2.397l-0.11,1.642l3.928,3.028l-2.335,2.65l-2.105,1.072l-2.232,0.188l-2.911,1.893l-2.287,3.252l-2.935-1.753l-0.56-1.215
		l0.48-3.153l-1.19-3.661l-1.317-2.114l1.916-1.893l1.356-2.588l-1.009-2.935L281.176,423.42z M239.652,188.126l-12.069-1.918
		l-19.94-3.589l-19.374-3.951l-12.241-2.762l3.312-14.757l2.619-11.636l2.366-4.323l-2.729-4.291l3.123-4.527l1.264-0.3l1.632-3.266
		l1.555-1.42l1.158-2.478l2.998-3.55l-0.386-2.311l-2.091-1.594l-0.789-2.736l0.434-2.382l-0.741-2.943l1.729-6.823l3.202-14.428
		l3.833-16.43l9.372,2.058l-3.109,14.547l2.279,4.646l-0.788,3.96l3.432,4.182l2.871,4.59l-0.237,1.199l2.683,2.462l-0.149,0.97
		l2.958,0.457l-1.751,3.533l-1.641,4.773l0.252,2.974l-1.79,0.82l-0.442,2.714l1.901,2.256l2.256-1.025l1.948-1.839l1.522,1.83
		l-0.496,1.121l1.568,6.151l1.042,1.239l-0.576,2.816l0.986,1.356l2.114,0.592l0.434,4.89l1.104,0.995l1.285-1.065l3.96,1.246
		l1.365-1.562l1.719,1.003l2.547-0.229l0.373,0.892l2.522-0.371l2.438-2.437l2.888,4.639l-2.643,16.856L239.652,188.126z
		 M493.482,259.441l-1.311,2.1l1.247,2.604l-4.575,1.781l-0.348,1.562l1.247,1.861l-1.294,1.356l-4.464-1.988l-1.326,0.302
		l-1.577,2.695l0.631,0.79l-1.829-0.032l-2.935-4.164l1.009-1.705l-1.261-1.985l-0.111-2.241l-4.007-2.966l-1.8-0.757l-4.307-3.471
		l-0.095-2.406l1.624-3.384l-0.361-1.681l0.993-2.098l-3.896-1.506l-0.979,1.427l-1.355-0.671l-1.025-4.804l-3.676-2.705
		l-3.911-4.031l-1.61-4.408l-0.252-2.975l0.854-2.153l0.63-3.431l2.414-1.035l0.188-2.121l1.39-1.736l0.047-2.57l-1.956-2.012
		l0.6-2.556l4.26-0.979l3.298-2.059l0.158-2.209l1.31-1.072v-4.639l-2.557-1.459l-1.057-2.303l-1.879-1.713l19.94-1.111l10.54-0.86
		l-0.126,2.88l1.956,3.147l2.177,5.284l1.594,18.355l1.437,16.472l-0.979,2.792l1.734,3.005l0.254,3.811l-3.093,6.263l-1.578,1.381
		l-0.44,5.15L493.482,259.441z M493.482,259.441l-0.44-0.979l0.44-5.15l1.577-1.381l3.094-6.263l-0.254-3.811l-1.734-3.005
		l0.979-2.792l-1.436-16.472l-1.594-18.355l2.775,1.034l4.701-2.517l11.202-1.104l10.663-1.246l0.111,0.938l1.562,13.157
		l1.608,14.53l1.137,10.468l-0.758,0.883l1.42,3.802l-1.862,0.301l-2.207,1.632l-3.014,0.009l0.646,2.098l-3.816,4.543l-1.104,1.996
		l-0.221,2.358l-2.604,0.188l-2.226-2.523l-1.451,4.021l-1.607,1.333l-1.736-1.79l-2.588,1.452l-0.899,1.916l-3.106-1.956
		l-3.188,1.862l-0.253-1.097L493.482,259.441z M404.584,221.942l-1.34-2.154l0.835-2.279l-0.741-2.478l-0.6-6.089l-1.799-1.239
		l0.34-3.557l-0.68-2.729l-1.545-1.081l-1.807-6.578l-2.004-3.195l1.325-5.072l0.765-1.064l-1.277-1.499l1.159-4.077h9.908
		l16.407-0.214l12.524-0.346l16.628-0.703l0.144,1.98l1.751,1.562l-1.136,1.838l0.504,3.36l1.073,2.429l3.63,1.207l0.977,1.933
		l1.879,1.713l1.056,2.303l2.558,1.459v4.639l-1.311,1.072l-0.157,2.209l-3.299,2.059l-4.259,0.979l-0.6,2.556l1.956,2.012
		l-0.047,2.57l-1.39,1.736l-0.188,2.121l-2.414,1.035l-0.63,3.431l-3.582-3.313l-16.927,1.12l-13.537,0.466L404.584,221.942z
		 M418.073,275.014l-21.882,0.109l-21.503-0.331l-15.066-0.474l-12.613-0.553l-15.145-0.787l0.985-15.558l0.679-11.382l1.064-17.583
		l17.621,0.979l17.095,0.662l20.982,0.442l19.451,0.079l1.15,1.317l3.108,1.751l-1.909,3.834l2.035,2.177l1.136,2.555l2.445,1.334
		l0.19,19.941L418.073,275.014z M545.514,271.7l-0.126,0.299l-9.924,1.042l-7.573,0.475l-7.415,0.866l-7.888,0.363l-15.618,1.733
		l-2.555-0.44l0.425,2.62l-15.902,1.229l0.349-1.767l1.767,0.567l1.089-5.961l-0.427-0.223l-0.631-0.79l1.577-2.696l1.326-0.301
		l4.464,1.988l1.294-1.355l-1.247-1.863l0.348-1.562l4.575-1.782l-1.247-2.603l1.311-2.099l3.817-1.918l0.253,1.098l3.188-1.862
		l3.106,1.956l0.899-1.916l2.588-1.451l1.736,1.789l1.607-1.332l1.451-4.022l2.225,2.524l2.604-0.189l0.221-2.358l1.104-1.995
		l3.816-4.543l-0.646-2.098l3.014-0.009l2.207-1.632l1.862-0.301l-1.42-3.802l0.758-0.883l2.161,0.165l2.035-0.836l1.799,1.412
		l1.388,2.832l4.055,0.196l2.413,1.617l1.516-1.333l2.775,1.263l1.61-0.679l2.539-2.319l0.898,2.311l3.173,2.146l0.536,2.311
		l-0.457,1.909l2.303,2.011l-0.301,0.808l3.014,3.541l2.823,1.553l1.058-0.196l-3.755,4.614l-3.943,2.775l-1.389,3.629l-2.146,0.853
		l-0.505,1.704L545.514,271.7z M429.558,382.812l-1.166-1.53l2.936-5.128l-1.074-2.807l0.854-1.675l-0.442-1.894l2.114-3.754
		l0.379-2.936l-0.458-2.365l-2.352-4.639l-1.135-0.727l-0.128-3.219l-2.792-3.281l-0.362-15.051l15.271-0.347l19.957-0.662
		l1.245,1.624l-0.993,2.193l0.269,2.051l1.94,1.357v2.019l1.12,0.363l-1.735,4.874l-3.155,2.604l-0.632,4.213l-1.355,0.631
		l0.188,3.756l-1.246,2.396l0.078,1.735l23.776-1.263l-1.2,4.985l2.288,2.949l0.662,2.353l1.642,1.45l-3.597,2.304l-0.205,1.42
		l3.138,0.773l1.2-2.479l1.482,1.057l-0.378,3.33l-2.872,0.062l0.505,1.324l-0.853,2.035l2.54,1.846l3.976,0.254l2.478,3.027
		l-1.704,1.941l-4.228-2.746l-4.797-1.12l0.032-2.304l-2.479,0.773l-0.109,3.581l-1.42,1.229l-1.355-0.44l-0.807-1.925l-2.98,0.047
		l-0.914,2.352l-2.462,1.041l-1.641-1.594l-4.118-0.773l0.614-2.775l-3.849-1.215l-1.451-2.934l-4.497-1.201l-2.191,2.021
		l0.505,1.088l-2.461,1.42l-4.435-0.662l-4.181-1.703l-3.218-0.82l-6.532,0.758L429.558,382.812z M455.399,385.115l-2.683-1.231
		l1.325-1.041l1.925,0.757L455.399,385.115z M397.217,178.85l0.071-14.176l0.055-12.298L395,150.721l-1.812-2.888l2.87-3.219
		l0.189-1.601l-0.331-5.781l-1.35-2.217l-0.655-2.715l-0.417-13.764l-2.801-8.259l-0.11-5.411l0.639-2.067l-1.215-4.56l20.241,0.04
		l-0.032-5.593l3.219,1.311l1.403,7.438l4.37,1.76l3.944,0.244l0.538,1.648l3.186-0.521l2.509-1.451l4.748,1.349l0.79,1.435
		l1.45-0.212l1.483,3.281l0.993-1.995l2.02-0.158l0.552,1.356l2.904,0.813l0.094,1.214l2.841,0.844l5.679-3.061l0.854,1.996
		l6.216-0.568l4.447,2.201l-2.634,1.807l-5.476,2.208l-1.893,1.247l-4.133,3.983l-2.919,3.659l-5.98,5.214l0.854,1.152l-0.79-0.584
		l-1.956,1.886l0.315,8.061l-0.567,0.884l-3.598,1.895l-1.547,2.681l-0.079,2.098l2.511,1.847l-1.074,2.256l0.222,5.214
		l-0.474,2.729l2.762,2.619l2.145,0.087l1.437,1.68l3.25,1.76l0.442,1.585l3.219,2.413l1.481,0.34l2.225,3.233l0.489,4.023
		l-16.629,0.703l-12.524,0.346l-16.407,0.214H397.217L397.217,178.85z M498.074,369.291l-1.311,0.807l-3.061-0.128l-1.326-0.821
		l-2.161,0.539l-4.937,2.254l-1.23,1.152l-1.642-1.451l-0.662-2.352l-2.288-2.949l1.2-4.984l-23.776,1.262l-0.078-1.735l1.246-2.397
		l-0.188-3.754l1.355-0.633l0.632-4.211l3.155-2.604l1.735-4.874l-1.12-0.363v-2.02l-1.94-1.356l-0.269-2.051l0.993-2.193
		l-1.245-1.624l0.819-2.16l-0.772-4.183l-1.198-3.345l3.723-5.647l-0.758-1.168l1.215-2.382l3.094-2.57l-0.475-3.551l1.42-0.457
		l0.521-2.051l1.861-1.23l-0.773-1.293l10.429-0.633l14.688-1.15l1.34,1.437l-0.331,12.856l-0.268,14.216L495.345,347
		L498.074,369.291z M477.486,279.982l0.488,1.83l-0.74,3.724l-1.516,1.956l-7.558,0.568l3.392-4.781l-1.229-2.791l-14.607,0.757
		l-20.067,0.788l-17.479,0.41l-0.095-7.432l-0.173-11.484l-0.19-19.94l-2.445-1.334l-1.136-2.555l-2.035-2.177l1.909-3.834
		l-3.108-1.751l-1.15-1.317l-1.199-0.577l-0.631-2.807l-1.578-1.279l-1.751-4.014l14.151,0.118l13.536-0.466l16.928-1.12
		l3.582,3.313l-0.854,2.153l0.252,2.975l1.61,4.408l3.911,4.031l3.676,2.705l1.025,4.804l1.355,0.671l0.979-1.427l3.896,1.506
		l-0.993,2.098l0.361,1.681l-1.624,3.383l0.095,2.406l4.307,3.471l1.8,0.758l4.007,2.966l0.111,2.241l1.261,1.986l-1.009,1.703
		l2.935,4.166l1.829,0.031l0.427,0.223l-1.089,5.961l-1.767-0.567l-0.349,1.767l-0.789,0.049L477.486,279.982z M404.584,221.942
		l1.751,4.014l1.578,1.279l0.631,2.807l1.199,0.577l-19.451-0.079l-20.981-0.442l-17.096-0.662l-17.621-0.979l0.946-14.798
		l-8.93-0.606l-13.038-1.026l1.158-13.022l1.396-16.432l9.757,0.781l16.062,1.16l10.594,0.527l12.407,0.537l10.365,0.322l0.308,0.75
		l5.489,2.776l1.325-1.419l1.522,0.394l4.078-0.308l1.846,1.429l3.494,1.072l2.138,2.95l1.736,0.213l1.807,6.578l1.545,1.081
		l0.68,2.729l-0.34,3.557l1.799,1.239l0.6,6.089l0.741,2.478l-0.835,2.279L404.584,221.942z M651.845,159.161l-1.168-0.939
		l0.284-3.146l-0.583-1.933l-0.741-6.414l1.104-3.683l0.363-5.072l-0.711-2.713l2.146-1.065l1.799-2.762l-1.452-3.359l0.788-2.636
		l-0.473-1.412l0.347-3.445l2.714-1.832l3.029,9.111l5.82,18.569l1.94,1.143l0.189,1.452l1.498,0.615l-0.427,2.981l-3.027,1.634
		l-1.247,2.207L651.845,159.161z M239.407,347.789l1.578-11.061l1.979-14.31l2.943-21.313l2.76-19.939l2.264-16.423l9.167,1.229
		l23.625,2.887l21.558,2.1l15.438,1.166l-0.536,7.368l-0.419-0.031l-1.428,18.476l-1.365,18.395l-1.316,14.797l-1.097,14.734
		l-18.183-1.481l-11.034-1.058l-14.665-1.547l-0.497,1.437l1.247,1.847l-20.69-2.492l-0.907,6.578L239.407,347.789z
		 M396.247,143.014l-12.486-0.149l-15.036-0.48l-22.109-1.059l-15.286-1.032l-11.493-0.907l1.096-12.89l1.452-16.588l1.185-14.917
		L341.4,96.34l10.626,0.63l11.814,0.562l10.199,0.362l15.966,0.347l1.215,4.56l-0.639,2.067l0.11,5.411l2.801,8.259l0.417,13.764
		l0.655,2.715l1.35,2.217L396.247,143.014z M418.168,282.443l2.462,16.312l-0.128,11.153l-0.142,14.846l-4.623-1.546l-1.703-1.752
		l-2.714-1.341l-0.757,1.247l-3.028-0.063l-0.222-0.741l-3.346,1.42l-1.197-0.758l-2.55,0.758l-2.39,2.178l-0.97-1.277l-2.484-1.184
		l-3.03-0.223l-2.609,1.01l-5.939-1.672l-1.002-1.293l-2.366,2.02l-0.932-2.035l-1.729-0.283l-0.93-1.625l-2.358-0.727l-1.491,1.357
		l-1.049-1.295l-2.168,0.299l-2.706-1.436l-2.479-0.047l-0.765-2.84l-3.812-0.301l-1.412,0.442l-2.217-2.587l-1.332-0.222
		l0.386-9.183l0.829-19.498l-12.699-0.601l-22.387-1.468l0.536-7.368l11.146,0.854l15.145,0.787l12.613,0.553l15.066,0.474
		l21.503,0.331l21.882-0.109L418.168,282.443z M176.027,175.906l-17.638-4.007l-13.719-3.478l-10.837-2.816l-13.938-4.125
		l-14.097-3.953l-5.009-1.515l-0.93-1.758l0.039-3.573l1.546-3.377l-0.545-4.275l1.703-1.941l1.909-3.597l2.793-3.589l1.712-3.353
		l4.771-11.643l0.308-1.624l2.571-4.979l2.588-7.106l0.647-4.181l1.167-3.076l4.527-0.009l2.139,2.391l1.782-0.071l1.641,2.012
		l0.379,1.987l-0.75,4.403l4.631,3.027l4.97-1.032l2.815,0.48l2.935,1.61l0.103,1.049l5.939-0.529l1.121,0.979l3.021,0.41l2.8-0.757
		l4.71-0.119l4.03,0.671l1.61-0.615l20.587,4.891l0.789,2.736l2.091,1.594l0.386,2.311l-2.998,3.55l-1.158,2.478l-1.555,1.42
		l-1.632,3.266l-1.264,0.3l-3.123,4.527l2.729,4.291l-2.366,4.323l-2.619,11.636L176.027,175.906z M612.167,302.417l-1.877,1.104
		l-2.256,2.807l-1.814,4.275l0.031,3.062l-1.655,2.81l-2.004-0.064l-0.331,1.988l-3.14,2.762l-1.168,2.303l-3.786,2.713h-1.735
		l0.489,2.604l-2.099,1.215l-2.367,3.723l-3.028-0.726l-0.678-3.219l-2.289-2.871l-1.86-0.788l-0.505-3.028l-1.215-2.398
		l-3.629-1.703l-2.351-2.398l-0.096-1.451l-3.802-2.24l-1.594-2.318l-3.423-1.688l-2.288-2.714l-2.335-4.276l-1.734,0.031
		l-4.418-2.539l-0.048-1.608l2.13-3.44l7.289-3.689l2.16-0.647l14.578-1.466l1.371,0.41l2.178,2.255l0.128,1.703l13.282-1.972
		L612.167,302.417z M397.249,193.758l-1.736-0.213l-2.138-2.95l-3.494-1.072l-1.846-1.429l-4.078,0.308l-1.522-0.394l-1.325,1.419
		l-5.489-2.776l-0.309-0.75l-10.364-0.322l-12.407-0.537l-10.594-0.527l-16.062-1.16l-9.757-0.781l1.02-12.542l1.38-16.785
		l0.188-0.024l1.121-13.835l11.493,0.907l15.286,1.032l22.109,1.059l15.036,0.48l12.486,0.149l-0.189,1.601l-2.871,3.219
		l1.813,2.888l2.343,1.655l-0.055,12.298l-0.071,14.176l-1.159,4.077l1.277,1.499l-0.765,1.064l-1.325,5.072L397.249,193.758z
		 M651.845,159.161l-8.424,1.837l-2.557-11.232l-2.257-1.104l0.348-2.168l-1.877-3.699l0.536-3.605l-0.741-3.25l-1.277-1.476v-2.579
		l-0.898-3.124l10.412-2.508l8.093-2.226l0.473,1.412l-0.788,2.636l1.452,3.359l-1.799,2.762l-2.146,1.065l0.712,2.713l-0.364,5.072
		l-1.104,3.683l0.741,6.414l0.583,1.933l-0.284,3.146L651.845,159.161z M637.915,234.002l-0.995,2.896l-1.324,1.104l-0.506,5.451
		l-1.703,5.331l-1.595-0.97l-0.394-1.83l0.315-4.473l1.704-4.014l-0.062-1.303l0.361-0.757L637.915,234.002z M563.214,255.206
		l-0.158,0.946l2.052,2.548l3.504,0.678l2.002-2.278l1.783,1.271l3.532-1.769l4.039-3.179l0.554,0.79l1.782-1.555l0.632-1.909
		l-1.041-0.797l1.088-2.909l1.529-2.028l0.253-2.146l2.114-4.867l0.094-2.461l2.24,1.633l1.987,0.363l2.397-7.045l1.643,1.011
		l4.068-6.863l-0.157-4.441l6.657,3.755l0.646-2.997l3.203,0.852l-0.567,1.293l5.111,2.193l1.324,1.886l-0.536,2.478l-1.167,0.914
		l-0.505,2.209l0.836,1.529l2.887-1.135l1.026,2.209l4.102,0.173l1.467,1.515l3.533,1.38l-0.565,4.315l2.05,2.957l-1.263,1.832
		l0.188,1.829l1.704,0.79l-1.262,2.12l-2.809-1.78l-0.378,1.049l2.365,1.078l5.679-0.779l2.619,5.08l-11.942,2.627l-18.315,3.597
		l-11.453,2.082l-9.086,1.515l-16.045,1.879l-14.025,1.955l-9.118,1.104l5.964-2.919l0.505-1.704l2.146-0.853l1.389-3.629
		l3.943-2.775L563.214,255.206z M563.214,255.206l-1.058,0.196l-2.823-1.553l-3.014-3.541l0.301-0.808l-2.303-2.011l0.457-1.909
		l-0.536-2.311l3.012-0.853l0.079-1.939l1.121-0.41l-0.79-2.904l1.862-3.753l1.688,2.059l0.995-1.492l-0.222-3.154l1.893-1.633
		l0.979-2.287l2.649-0.072l3.219-4.039l-0.126-1.955l0.885-3.415l-0.254-1.508l0.945-3.81l-1.355-3.645l1.451-1.198l2.209,13.409
		l11.502-1.956l1.229,7.573l1.939-1.775l1.703-2.746h1.642l1.294-2.681l3.817,0.599l1.01-2.043l1.673-1.119l4.858,2.153l1.31,2.279
		l-0.646,2.997l-6.657-3.755l0.157,4.441l-4.068,6.863l-1.643-1.011l-2.397,7.045l-1.987-0.363l-2.24-1.633L586.88,238l-2.114,4.867
		l-0.253,2.146l-1.529,2.028l-1.089,2.909l1.041,0.797l-0.631,1.909l-1.783,1.555l-0.553-0.79l-4.039,3.179l-3.533,1.769
		l-1.782-1.271l-2.002,2.278l-3.505-0.679l-2.051-2.547L563.214,255.206z M259.002,205.985l-15.776-2.217l-5.916-0.972l2.343-14.671
		l3.061-19.176l2.643-16.856l1.183-7.685l3.55,0.688l16.462,2.217l8.536,1.23l20.667,2.578l22.772,2.123l-1.38,16.785l-1.02,12.542
		l-1.396,16.432l-1.158,13.022l-8.772-0.701l-14.869-1.499l-15.374-1.854L259.002,205.985z"/>
	<path fill="#F6F4F2" stroke="#999999" stroke-linejoin="round" d="M668.74,149.64l-1.498-0.615l-0.189-1.452l-1.94-1.143
		l-5.82-18.569l-3.029-9.111l2.209-2.042l1.025-3.431l2.082-2.485l0.615-2.557l-1.198-2.303l-0.032-4.03l1.137-1.641l-0.535-4.095
		l4.432-12.864l1.878-0.079l0.758,2.547l1.642,0.537l2.649-2.438l3.154-1.798l5.333,2.611l4.906,15.705l0.932,3.794l4.101,0.236
		l-0.361,1.491l1.325,1.31l-0.284,1.593l1.372,1.429l2.431-0.758l3.312,4.387l-1.373,2.933l-3.233,2.769l-2.841,0.443l0.096,2.295
		l-2.161,0.741l-2.288,3.005l-0.395-2.5l-4.118,2.895l-1.387-0.236l0.016,4.765l-0.898,1.837l-2.479,0.38l-0.109,1.316l-3.503,2.58
		l-2.066-0.229l-1.436,2.753l1.04,1.427l-1.562,0.939l0.11,2.54l-1.137,0.702L668.74,149.64z"/>
	<path fill="#F6F4F2" stroke="#999999" stroke-linejoin="round" d="M643.421,160.998l8.424-1.837l12.194-2.699l1.247-2.207
		l3.028-1.634l1.104,2.438l0.096,2.161l-1.199,2.548l0.567,1.988l2.304-0.371l2.052,1.933l0.252,1.862l1.246,0.173l1.499,2.162
		l2.021-0.175l3.407-2.065l0.6,1.933l-4.354,1.813l-2.493,2.106l-0.914-2.453l-2.462,2.295l0.126,1.429l-1.735,0.717l-1.42-2.318
		l-0.474-0.426l-1.34-0.711l-1.468-3.249l-4.322,1.261l-0.097-0.188l-17.81,4.086l-0.317-0.48L643.421,160.998z"/>
	<path fill="#F6F4F2" stroke="#999999" stroke-linejoin="round" d="M474.315,108.369l0.235,1.499l-3.66,2.603l-1.293-1.097
		L474.315,108.369z M488.971,151.502l-1.702-1.342l0.788-2.169l-2.462,0.008l0.788-2.208l-0.126-2.549l-3.55-3.359l-7.035-0.837
		l-3.328-1.562l-10.633-2.2l-1.247-2.431l-1.94-0.741l3.817-1.791l1.703-1.908l4.103-0.891l8.204-6.587l1.421-1.958l2.271-1.45
		l2.555,1.506l-2.57,2.138l-2.052,3.652l5.554,0.442l2.823,1.191l2.81,3.983l1.355,0.41l2.366-0.884l1.578,1.246l2.901-0.654
		l1.042-1.381l3.154-2.129l6.562-0.829l4.086-1.578l0.475,3.321l2.697,0.884l1.657-0.772l0.93,0.875l1.168-1.341l2.871-0.805
		l1.168,7.982l-2.589,1.025l-3.061-1.404l-0.109,2.942l-1.341-0.087l-2.021-1.743l-3.501-0.883l-1.847,0.214l-1.246,1.986
		l-2.635,0.78l-2.775-0.156l-1.469,2.706l-1.451,0.678l-1.167,2.138l-2.13-1.356l-3.298,1.215L488.971,151.502z M538.083,195.981
		l-14.515,2.359l-0.111-0.938l-10.663,1.246l-11.202,1.104l2.051-2.193l2.305-5.592l0.819-3.408l0.062-3.582l-1.04-5.291
		l-3.817-7.533l0.835-3.03l-1.198-3.478l2.146-4.442l-0.174-5.324l1.419-0.686l-0.016-2.438l2.604-0.939l0.442-1.529l1.373,0.551
		v2.564l1.371,1.049l1.104-2.816l-0.331-4.96l1.499-1.461l1.829-0.292l-1.261-2.91l1.829-2.896l1.356-0.741l3.423,1.617l2.541-0.07
		l1.293,1.781l2.082,0.032l3.408,1.499l1.041-0.173l2.271,3.052l-1.184,1.61l1.672,2.019l0.789,2.382l0.144,5.506l-2.021,1.972
		l-0.047,2.541l-2.445,1.316l-0.853,3.637l0.615,1.089l2.683,0.859l3.518-6.121l3.408-1.925l2.021,0.923l1.262,1.862l1.941,5.893
		l0.63,3.076l1.704,3.471l-0.41,5.568l-1.562,0.97l-1.449-1.261l-0.758,4.614l-1.926,1.973l-0.032,3.345l-1.245,1.254
		L538.083,195.981z M528.886,135.047l-2.523-0.915l1.388-1.752l1.908,1.491L528.886,135.047z"/>
	<path fill="#F6F4F2" stroke="#999999" stroke-linejoin="round" d="M318.525,153.245l-22.772-2.123l-20.667-2.578l-8.536-1.23
		l-16.462-2.217l-3.55-0.688l-1.183,7.685l-2.888-4.639l-2.438,2.437l-2.522,0.371l-0.373-0.892l-2.547,0.229l-1.719-1.003
		l-1.365,1.562l-3.96-1.246l-1.285,1.065l-1.104-0.995l-0.434-4.89l-2.114-0.592l-0.986-1.356l0.576-2.816l-1.042-1.239
		l-1.568-6.151l0.496-1.121l-1.522-1.83l-1.948,1.839l-2.256,1.025l-1.901-2.256l0.442-2.714l1.79-0.82l-0.252-2.974l1.641-4.773
		l1.751-3.533l-2.958-0.457l0.149-0.97l-2.683-2.462l0.237-1.199l-2.871-4.59l-3.432-4.182l0.788-3.96l-2.279-4.646l3.109-14.547
		l8.029,1.681l14.468,2.888l14.908,2.642l10.925,1.846l19.428,2.841l12.463,1.632l16.037,1.839l19.421,1.854l-1.185,14.917
		l-1.452,16.588l-1.096,12.89l-1.121,13.835L318.525,153.245z"/>
	<path fill="#F6F4F2" stroke="#999999" stroke-linejoin="round" d="M193.586,255.238l-2.208,11.775l-1.72,2.241l-1.003-0.063
		l-1.184-2.178l-2.247-0.566l-2.296,0.504l0.237,3.093l-1.097,5.772l0.244,5.334l-1.128,1.86l-10.356-15.524l-7.179-10.836
		l-11.831-17.819l-7.763-11.707l-10.467-15.752l3.588-13.718l4.496-17.613l2.997-11.619l13.719,3.478l17.638,4.007l12.241,2.762
		l19.374,3.951l-3.407,17.765l-3.605,18.458l-2.847,14.57L193.586,255.238z"/>
	<path fill="#F6F4F2" stroke="#999999" stroke-linejoin="round" d="M629.664,210.654l0.662-1.886l2.604-1.813l-0.017-1.184
		l3.786-3.904l-4.48-2.863l-0.504-1.799l-1.452-0.182l-0.52-1.664l1.056-2.99l-1.198-1.514l0.946-0.939l1.23-3.881l1.262-1.521
		l9.654,3.242l-0.314,4.456l-1.641,1.578l-0.079,2.524l3.046,0.141l0.615,1.555l0.504,8.015l-2.131,6.617l-1.797,2.208l-1.151,4.088
		l-1.8,1.214l0.222-3.407l-2.667-0.126L630.074,214l-0.664-2.067l-0.126-0.354L629.664,210.654z"/>
	<path fill="#F6F4F2" stroke="#999999" stroke-linejoin="round" d="M645.376,187.29l1.894,0.56l2.982-0.504l0.931-1.343l3.724-0.748
		l1.893-0.939l2.558-3.084l0.71,1.569l1.83,0.601l-2.619,2.294l-7.825,5.531l-7.589,3.146l-1.482-2.161l0.314-4.456l-9.654-3.242
		l-0.709-0.939l-2.729-0.142l-2.619-4.931l-1.799-0.237l-1.246-1.41l-10.429,2.239l-15.808,3.187l-11.106,2.091l-9.497,1.681
		l-0.694-3.953l5.774-5.293l0.741-2.145l1.783-1.752l-2.178-2.626l-1.342-3.913l5.79-2.736l5.38-0.932h2.382l2.572,1.049
		l1.372-0.898l4.638-0.844l2.398-1.587l2.478-3.218l1.783-0.497l-0.79-3.968l0.79-1.554l-3.125-2.413l0.315-1.538l3.565-3.329
		l1.04-2.414l4.229-6.23l2.335-2.296l8.33-2.035l8.03-2.17l0.899,3.124v2.579l1.276,1.476l0.741,3.25l-0.536,3.605l1.877,3.699
		l-0.348,2.168l2.257,1.104l2.558,11.232l-0.238,10.09l0.316,0.48l1.939,10.98l1.009,1.033l-2.239,2.239L645.376,187.29z"/>
	<path fill="#F6F4F2" stroke="#999999" stroke-linejoin="round" d="M568.657,268.641l16.045-1.879l9.086-1.515l11.453-2.082
		l18.315-3.597l11.942-2.627l2.524,5.467l-1.973-0.457l-3.14,2.443l-2.161,0.711l0.931,1.877l3.346-1.467l1.15,1.324l2.225-1.197
		l1.548,3.358l-0.316,1.799l-1.388,0.378l-2.146,4.149l-4.086,0.221l0.554,1.531l-0.712,2.649l-2.316,2.508l0.599,0.521l2.776-1.893
		l0.126-0.946l2.919,0.442l-2.478,5.883l-2.776-0.235l-4.892,2.396l-3.784,3.818l-2.272,4.039l-0.679,3.913l-5.19,1.167l-1.72,1.073
		l-15.886-11.485l-13.283,1.971l-0.128-1.703l-2.177-2.254l-1.371-0.41L564.743,290l-2.16,0.646l-7.289,3.69l-5.995,1.013
		l-8.33,1.024l-0.062-3.55l3.046-1.422l-0.205-1.592l2.65-2.684l3.201-0.427l2.714-2.822l2.793-1.089l2.051-3.676l1.988,0.221
		l4.133-3.439l2.303,0.205l1.072-2.871l1.673-1.894L568.657,268.641z"/>
	<path fill="#F6F4F2" stroke="#999999" stroke-linejoin="round" d="M554.238,243.271l-3.172-2.146l-0.899-2.311l-2.539,2.319
		l-1.61,0.679l-2.775-1.263l-1.516,1.333l-2.412-1.617l-4.056-0.196l-1.388-2.832l-1.799-1.412l-2.035,0.836l-2.161-0.165
		l-1.137-10.468l-1.608-14.53l-1.562-13.157l14.515-2.359l4.464,1.444l1.578,0.994l2.303-0.363l2.855,1.641l4.78-2.705l2.967-0.024
		l2.871-3.241l4.195-3.337l4.971-2.689l3.201,19.562l-1.451,1.198l1.355,3.645l-0.946,3.81l0.255,1.508l-0.885,3.415l0.126,1.955
		l-3.219,4.039l-2.65,0.072l-0.979,2.287l-1.894,1.633l0.223,3.154l-0.995,1.492l-1.688-2.059l-1.861,3.753l0.79,2.904l-1.121,0.41
		l-0.079,1.939L554.238,243.271z"/>
	<path fill="#F6F4F2" stroke="#999999" stroke-linejoin="round" d="M630.326,208.769l-2.319-0.008l-1.499,2.028l-18.427,3.849
		l-22.103,4.078l-11.5,1.956l-2.209-13.409l-3.202-19.562l7.335-5.602l0.693,3.953l9.498-1.681l11.106-2.091l15.808-3.187
		l10.428-2.239l1.246,1.41l1.799,0.237l2.619,4.931l2.729,0.142l0.709,0.939l-1.262,1.521l-1.23,3.881l-0.946,0.939l1.198,1.514
		l-1.056,2.99l0.52,1.664l1.452,0.182l0.504,1.799l4.48,2.863l-3.786,3.904l0.017,1.184L630.326,208.769z"/>
	<path fill="#F6F4F2" stroke="#999999" stroke-linejoin="round" d="M670.429,173.114l-1.986,0.836l0.566-3.154L670.429,173.114z
		 M668.535,170.37l-1.734,1.19l0.63,2.746l-0.788,1.655l-3.345,1.728l0.315-1.529l-2.208-8.489l4.321-1.261l1.469,3.249
		L668.535,170.37z"/>
	<path fill="#F6F4F2" stroke="#999999" stroke-linejoin="round" d="M568.657,268.641l-0.332,2.696l-1.673,1.894l-1.072,2.871
		l-2.303-0.205l-4.133,3.439l-1.988-0.221l-2.051,3.676l-2.793,1.089l-2.714,2.822l-3.202,0.427l-2.649,2.684l0.205,1.592
		l-3.046,1.422l0.062,3.55l-15.207,1.813l-14.924,1.451l-15.966,1.182l0.079,0.158l-14.688,1.151l-10.429,0.632l1.184-0.521
		l1.373-3.075l-0.995-0.441l0.158-2.65l5.146-7.51l-0.979-1.072l1.516-1.956l0.74-3.724l-0.488-1.83l0.662-0.047l0.788-0.049
		l15.902-1.229l-0.425-2.62l2.555,0.441l15.618-1.734l7.888-0.363l7.415-0.867l7.573-0.474l9.924-1.042l0.126-0.299l9.118-1.104
		L568.657,268.641z"/>
	<path fill="#F6F4F2" stroke="#999999" stroke-linejoin="round" d="M390.961,406.901l-4.203,5.633l-2.17,4.795l-0.466-0.205
		l2.649-5.41l2.375-3.597L390.961,406.901z M271.426,345.061l-1.247-1.848l0.497-1.436l14.665,1.546l11.034,1.058l18.183,1.482
		l1.097-14.735l1.316-14.797l1.365-18.396l1.428-18.475l0.419,0.031l22.387,1.468l12.699,0.601l-0.828,19.498l-0.387,9.183
		l1.332,0.222l2.218,2.587l1.411-0.442l3.812,0.301l0.765,2.84l2.479,0.047l2.706,1.436l2.168-0.299l1.049,1.295l1.491-1.357
		l2.358,0.727l0.931,1.625l1.728,0.283l0.932,2.035l2.366-2.02l1.002,1.293l5.939,1.672l2.609-1.01l3.03,0.223l2.484,1.184
		l0.97,1.277l2.39-2.178l2.55-0.758l1.197,0.758l3.346-1.42l0.222,0.741l3.028,0.063l0.757-1.247l2.714,1.341l1.703,1.752
		l4.623,1.546l1.104,1.198h4.308l0.157,7.855l0.362,15.051l2.792,3.281l0.128,3.219l1.135,0.727l2.352,4.639l0.458,2.365
		l-0.379,2.936l-2.114,3.755l0.442,1.893l-0.854,1.675l1.074,2.808l-2.936,5.127l1.166,1.53l-3.754,0.74l-5.838,2.684l-1.83-0.789
		l0.521-2.919l-3.472,0.362l-0.661,2.146l1.436,0.836l0.205,2.809l-1.641,2.351l-4.165,3.676l-5.916,3.471l-2.896,0.176
		l-2.484,1.057l-0.979-0.947l-2.2,1.01l0.915,1.941l-3.485,1.531l-4.622,4.259l-3.992,6.862l-2.178,8.298l-1.01,0.142l-0.148,2.13
		l1.222,1.247l0.403,4.527l1.402,1.436l0.719,3.882l1.641,1.94l-2.744,0.363l-0.315,1.261l-1.966-0.725l-1.688-1.973l-3.146-0.711
		l-4.819-0.188l-2.8-2.271l-2.723-0.283l-2.026-2.003l-3.764-0.933l-1.869-6.152l-2.264-2.683l0.378-2.239l-0.891-1.42l0.354-3.123
		l-1.555-2.352l-1.277-0.205l-2.192-2.225l-0.59-2.698l-1.88-2.445l-2.634-2.161l-1.128-4.479l-2.832-4.765L342,390.32l-1.49-2.256
		l-2.604-1.908l-0.561-1.34l-2.501-1.279l-1.812-3.359l-5.538-0.994l-3.305-0.08l-2.825-1.308l-0.662,1.45l-3.337,0.253
		l-2.271,2.981l-1.236,4.434l-1.588,0.504l-1.694,2.619l-2.122-0.109l-2.919-2.494l-2.508-1.024l-1.326-1.388l-3.817-1.832
		l-1.372-2.064l-2.903-2.114l-1.837-4.37l0.282-3.723l-1.907-3.33l-0.261-2.665l-1.191-1.799l-4.631-2.981l-2.24-3.582l-1.987-1.449
		l-1.924-3.125l-3.006-1.83l-1.735-4.116L271.426,345.061z"/>
	<path fill="#F6F4F2" stroke="#999999" stroke-linejoin="round" d="M193.586,255.238l4.197-21.826l2.847-14.57l3.605-18.458
		l3.407-17.765l19.94,3.589l12.069,1.918l-2.343,14.671l5.916,0.972L259,205.986l-2.279,16.493l-1.523,11.004l-1.821,12.47
		l-0.024,1.674l-2.422,17.117l-16.344-2.383l-10.72-1.752l-17.874-3.021L193.586,255.238z"/>
	<path fill="#F6F4F2" stroke="#999999" stroke-linejoin="round" d="M143.804,72.375l-1.632,0.254l1.979,3.699l-2.225-0.592
		l0.418-1.791l-1.159-1.389l1.672-2.145L143.804,72.375z M190.06,118.719l-20.587-4.891l-1.61,0.615l-4.03-0.671l-4.71,0.119
		l-2.8,0.757l-3.021-0.41l-1.121-0.979l-5.939,0.529l-0.103-1.049l-2.935-1.61l-2.815-0.48l-4.97,1.032l-4.631-3.027l0.75-4.403
		l-0.379-1.987l-1.641-2.012l-1.782,0.071l-2.139-2.391l-1.529-1.096l-1.736,0.417l-1.728-1.38l1.2-2.2l1.608-0.623l-1.104-3.542
		l0.615-1.696l1.893-0.961l-1.853-1.334l0.331-3.999l-0.489-1.175l0.615-5.792l-1.262-2.522l0.56-4.339l1.822-2.462l1.648,1.997
		l3.874,3.052l4.717,2.138l2.422-0.087l0.844,1.515l3.312,0.671l-0.394,1.83l1.246,1.758l-0.955,4.142l-1.294,2.896l-3.297,2.871
		l0.829,0.536l2.216-2.207l2.178-0.271v-3.438l1.19-3.18l2.413-2.657l-0.891-1.736l0.592-2.24l-1.254-2.177l0.275-1.443l1.72-0.899
		l-0.032-2.296l-2.231-2.666l0.766-1.555l9.426,2.755l16.486,4.377l18.939,4.678l9.229,2.122l-3.833,16.43l-3.202,14.428
		l-1.729,6.823l0.741,2.943L190.06,118.719z"/>
	<path fill="#F6F4F2" stroke="#999999" stroke-linejoin="round" d="M459.627,191.896l-0.977-1.933l-3.629-1.207l-1.074-2.429
		l-0.504-3.36l1.136-1.838l-1.751-1.562l-0.144-1.98l-0.488-4.023l-2.225-3.233l-1.481-0.34l-3.219-2.413l-0.442-1.585l-3.25-1.76
		l-1.437-1.68l-2.145-0.087l-2.762-2.619l0.474-2.729l-0.222-5.214l1.074-2.256l-2.511-1.847l0.079-2.098l1.547-2.681l3.598-1.895
		l0.567-0.884l-0.315-8.061l1.956-1.886l0.79,0.584l1.954,0.158l3.124-1.121l6.595-3.28l0.916,0.97l-1.198,1.988l1.387,1.562
		l3.471,0.954l1.941,0.741l1.247,2.431l10.633,2.2l3.328,1.562l7.035,0.837l3.55,3.359l0.126,2.549l-0.788,2.208l2.462-0.008
		l-0.788,2.169l1.702,1.342l-0.252,1.798l-1.926,0.536l-1.829,5.814l1.199,0.354l1.578-1.711l1.388-3.007l1.988-1.135l1.402-4.007
		l2.036-1.019v1.979l-1.263,1.901l-2.366,6.365l-0.474,3.44l0.458,2.065l-1.215,1.224l-0.647,3.368l0.552,2.935l-1.641,6.468
		l0.602,3.683l1.672,3.086l-0.126,4.282l-10.54,0.86L459.627,191.896z"/>
	<path fill="#F6F4F2" stroke="#999999" stroke-linejoin="round" d="M-8.673,39.529"/>
	<path fill="#F6F4F2" stroke="#999999" stroke-linejoin="round" d="M633.355,236.195l-2.745-1.317l-2.193-3.13l-2.762,0.496
		l-2.003-7.288l1.185-0.293l-0.222-2.532l-1.736-1.837l0.506-2.738l1.86-1.119l-0.884-1.042l-3.471,4.543l1.104,2.573l-0.931,2.437
		l1.057,4.859l1.861,1.728l1.516,3.454l-2.336,0.576l-0.946-1.033l-3.881-0.348l-1.546-2.011l-1.895,1.649l-1.057-1.61l1.151-2.555
		l0.536-2.478l1.136-1.751l-1.734-1.214l-0.726,1.079l-5.111-2.193l0.567-1.293l-3.203-0.852l-1.31-2.279l-4.858-2.153l-1.673,1.119
		l-1.011,2.043l-3.816-0.599l-1.294,2.681h-1.642l-1.704,2.746l-1.938,1.775l-1.23-7.573l22.103-4.078l18.427-3.849l4.985,18.048
		l7.192-1.42l-0.771,6.585l-4.197,1.437L633.355,236.195z"/>
	<path fill="#F6F4F2" stroke="#999999" stroke-linejoin="round" d="M539.724,355.865l-18.963,2.177l-13.473,1.168l-0.27,1.988
		l3.093,2.557l0.188,3.218l-1.072,2.698l-1.703,0.599l-3.359-2.066l-0.647-3.612l-0.93-0.331l-0.963,2.684l-0.222,2.775
		l-3.328-0.427L495.345,347l0.349-17.511l0.268-14.216l0.331-12.856l-1.34-1.437l-0.079-0.158l15.966-1.182l14.924-1.453
		l2.683,9.498l5.867,21.172l3.44,6.15l-0.284,1.516l1.42,0.664l-1.861,2.178l0.315,1.797l-0.758,2.62l1.734,4.228l-0.457,3.96
		L539.724,355.865z"/>
	<path fill="#F6F4F2" stroke="#999999" stroke-linejoin="round" d="M106.92,438.218l0.275,0.441l-1.151,0.062l-0.126-0.425
		l0.473-0.441L106.92,438.218z M103.97,438.533l0.387,0.741l0.923-0.362l0.314,1.119l-1.396,0.521l-0.245,0.474l-0.986,0.314
		l-0.496-0.188l-1.941,0.646l-0.615-0.489l2.454-0.535l0.48-1.169l-0.275-0.409l0.434-0.536L103.97,438.533z M98.755,441.389
		l-1.097,0.933l-0.765-0.38l0.126-0.553l1.184-0.488l0.402-0.693l1.12-0.237l0.575,0.363l-0.284,0.632L98.755,441.389z
		 M42.938,422.884l0.07-0.979l1.279,0.741l0.362,0.567l-0.679,0.395l-0.805-0.235L42.938,422.884z M189.295,414.223l0.97-0.143
		l0.331-0.536l1.176,0.474l1.349,0.048l0.316,0.599l-0.284,0.363l0.489,0.441l0.686,1.198l-0.639,0.38l-1.609-0.601l0.378,1.024
		l-0.291,0.521l-0.536-0.048l-1.151-0.932l-0.688-0.819l-0.669-0.349l-0.158-0.757L189.295,414.223z M193.894,413.164l1.144-0.268
		l-0.165,0.962l0.97,1.104l0.655,0.426l0.56,1.215l-1.168,2.114l-0.315,0.096l-0.268-1.343l-0.434-1.04l-0.624-0.932l-0.693-1.83
		l-0.505-0.474l0.402-0.41L193.894,413.164z M137.533,432.286l0.465,0.062l-0.181,1.073l-0.757-0.126l-0.119-0.378L137.533,432.286z
		 M123.201,434.4l-0.096,1.088l-0.836-0.363l-0.031-0.694l0.474-0.378L123.201,434.4z M206.641,424.65l0.86,0.331l0.103,0.837
		l-0.585,0.283L206.641,424.65z M202.191,425.376l-1.309-0.742l0.465-1.056l-0.639-0.728l-0.805,0.615l-0.56-0.062l0.457-1.119
		l-0.545-0.979l1.318-0.188l0.741,0.821l1.324,0.63l0.679,0.537l0.3,1.323l0.64,0.047l0.827,0.711h0.403l0.899,2.257l-0.049,0.506
		l-0.812,0.173l-0.545-0.867l-0.709-0.049l-0.284-0.709l-0.939-0.331l-1.009,0.063l-0.245-0.284L202.191,425.376z M192.245,418.213
		l0.615,0.773v0.679l-0.568,0.284l-0.354-1.531L192.245,418.213z M146.565,422.567l-0.214,0.379l0.387,0.614l0.575-0.016
		l-0.513,1.025l-0.473-0.031l-0.474,0.788l-0.686,0.127l0.213,0.552l-1.988,0.727l-0.284,0.727l-0.765,0.662h-0.513l-0.229-0.662
		l-0.837-0.601l-0.023-1.072l-0.489-0.868l0.254-0.741l1.111-0.772l0.67,0.079l0.127-0.852l0.583-0.41l0.711,0.487l0.891-0.788
		l0.907,0.205l1.018-0.158L146.565,422.567z M201.767,419.129l-0.553,0.788l-0.766,0.111l-0.196,0.473l-0.648-0.032l-0.583,0.427
		l-0.827-1.672l-1.113-0.853l0.331-0.473h1.538l0.687-0.223l0.742,0.758L201.767,419.129z M141.091,429.021l-0.939,0.852
		l-0.189-0.157l0.766-0.836L141.091,429.021z M200.883,420.327l0.623-0.299l0.489,0.835l-0.529,0.347l-0.654-0.282L200.883,420.327z
		 M192.401,417.188l0.262-0.378l1.144,0.457l0.583-0.126l0.261,0.79l1.506,2.822l-0.007,0.521l0.497,1.325l-0.418,0.284
		l-1.648-1.879l-0.829-0.457l-0.062-1.246l-1.46-1.309L192.401,417.188z M198.35,423.136l-0.308,0.096l-0.583-1.343l0.166-0.457
		l-1.025-1.276l-0.222-0.554l0.773-0.725l1.145,0.504l0.401,0.82l-0.474,0.693l0.553,1.295l-0.56,0.473L198.35,423.136z
		 M107.424,390.084l1.247,0.553l-0.553,0.631l-1.167-0.283l-0.845,0.931l-0.261-0.806l-0.946-1.323l-0.953-0.933l-0.513-0.188
		l-0.963,0.363l-0.521-0.442l-0.087-0.679l0.797-0.805l1.404,0.931l1.073-0.378l0.765,0.646l-0.039,0.631L107.424,390.084z
		 M158.404,407.565l-0.038,1.103l-0.27,1.153l-0.513-0.349l0.3-1.324L158.404,407.565z M112.535,407.833l0.135,1.42h-1.151
		l-0.575,0.473l-0.499-0.631l-0.457-0.062l-0.812-0.899l-0.781-0.552l-0.07-0.741l1.207,0.237l0.536-0.427l1.562-0.189l0.149,0.427
		l0.906,0.252L112.535,407.833z M156.196,411.004l-0.836,0.205l-1.476-0.852v1.01l-0.86,0.52l0.254,0.694l-0.916,0.301l-0.03,0.395
		l-1.24,0.805l-0.361,0.016l-0.489,1.026l-0.773,0.188l-0.553-0.221l-0.765,0.505l-0.615-0.473l0.205-0.884l1.072-0.302l0.513-0.439
		l-1.593-1.089l0.379-1.325l0.686-0.947l0.323-1.734l-0.394-0.898l0.859-0.379l1.632-1.388l0.86,0.614l0.702-0.632l-0.852-0.631
		l0.198-0.427l-1.191,0.049l-0.442-0.254l-0.907,0.632l-0.323,0.694l-0.773,0.221l-0.757,0.853l-0.103,0.614l-1.128,1.215
		l0.213,0.568l-0.979,0.946l0.165,0.726l-0.338,0.82l-0.758,0.158l-0.109,1.009l-1.271,0.348l-0.568,0.442l0.095,0.566l-1.025,0.348
		l-0.197,1.546l1.316-0.031l0.946,0.788l-0.275,1.074l-0.615,0.504l-0.583,0.032l-0.435,0.6l0.158,0.583l-0.48,0.3l0.094,0.521
		l-0.527,0.646l-1.879,0.457l-0.205,0.694l-1.23,0.378l-0.543,1.216h-0.639l-0.167,0.536l-0.875,0.094l-0.032,1.2l-0.646,1.01
		l-0.568-0.236l-1.301,1.277l-0.474-0.521l-0.561,0.79l0.261,0.425l-1.065,0.268l-0.182,0.428l-1.237-0.126l-0.506,0.693l0.79,0.315
		l-0.623,0.853l-1.318,0.504l-0.196,0.348l-2.051,0.459l-0.702-0.205l-0.86,0.852l-0.789,0.222l-0.252,0.474l-0.954,0.188
		l-0.205-0.409l-1.153,0.758l-0.804-0.126l0.575-1.247l-0.646-0.079l-0.419,1.042l-1.269,1.577l-1.539,0.109l-0.876,0.348
		l-0.552-1.025l-0.48,0.284l0.496,0.583l-1.097,0.585l0.757,0.504l-1.514,0.38l-1.468-0.269l-0.914,0.662l-0.908,0.236l-0.583-0.221
		l-0.175-0.854l0.773-0.314l0.655-1.072l0.608,0.062l1.427-0.536l1.049,0.094l1.995-0.425l0.064-0.458l1.143-0.378l-0.094-0.475
		l1.033-1.042l1.38-0.851l1.562-0.316l2.217,0.854l-0.149-0.728l0.741-1.37l1.625-1.218l1.468-0.52l1.096-0.854l0.82,0.38
		l0.159-1.39l0.788-0.993l1.058-0.646l0.946-1.025v-0.566l0.44-2.052l0.506-0.236l-0.371-0.554l0.315-1.166l1.058-0.979
		l-0.071-0.837l-2.793,1.151l-1.568-1.388l-0.34,0.692l0.363,1.264l-0.553,0.457l-0.427-0.205l-0.732-1.83l-0.64-0.474l-0.741,0.301
		l-0.993-0.963l-0.047-0.631l-2.746,1.372l-0.126,0.395l-1.098,0.222l-0.41-0.348l0.521-0.553l-0.023-1.437l-0.419-1.118
		l1.042-1.089l-0.741-2.446l-0.734-1.403l-0.252,0.979l-1.814,0.566l-1.01,0.095l-1.396-0.409l-0.047-0.979l-0.442-0.348
		l-0.606-1.23l-0.963-0.883l-0.221-0.819l0.876-0.601l0.04-0.772l-0.664-1.137l-0.576-0.331l0.072-0.852l-0.442-0.19l-0.474-1.829
		l0.301-0.914h1.191l-0.238-0.82l0.324-0.631l1.813-1.8l0.688-0.141l-0.087-1.026l0.82-1.498l0.567-0.506l0.694-0.142l0.893,0.379
		l0.827,1.024l0.655-0.016l0.907-0.711l1.135-1.246l1.673,0.379l0.915-0.174l0.979-1.277l-0.222-2.412l-0.48-0.744l-0.584-0.346
		l0.355-0.537l0.623,0.269l0.671-0.521l0.094-0.537l-0.679-1.135l-0.583,0.692l-0.615-0.142l-1.16,0.426l-0.914,0.646l-0.292,0.709
		l-1.011-1.449l-0.986,0.269l-1.806-0.188l-1.396,0.361l-2.516-1.23l-0.394-0.852l0.275-0.693l-0.48-0.662l0.235-0.633l0.773-0.693
		l-0.363-0.41l-1.869-0.758l-1.081-1.088l0.062-0.553l1.31-0.44l1.697-0.867l2.35-1.026l2.407-0.662l1.293-0.063l0.654,0.315
		l-0.6,1.783l0.205,0.693l2.123,0.143l0.709,0.409l1.136,0.188l0.733-1.039l1.145,0.142l-0.222-0.536l-1.442-0.71l-0.489-1.325
		l-0.623-0.379l-0.096-0.805l0.608-0.126l0.497,0.867l-0.198,0.661l0.884,1.186l0.536-0.143l-0.97-1.277l0.536-1.263l-0.213-0.489
		l-1.263,0.189l-0.513-0.441l-0.805-0.032l-1.222-0.63l0.063-0.648l-0.387-1.75l-2.327-2.84l-0.703-0.396l-0.322-0.709l-0.985-0.867
		l0.662-0.142l0.41-0.664l0.323-1.578l1.616,0.41l2.044-0.03l1.482-0.884l0.946-1.041l0.38-1.752l1.151-1.12l0.079-0.331
		l1.096-1.119l1.16,0.282l1.443-0.82l1.608-1.575l1.713,0.156l1.079-0.156l0.955-0.537l1.255-1.641l1.237,0.282l0.079,0.348
		l0.734,0.032l0.117,0.457l-0.884,0.898l0.23,0.349l0.639-0.144l0.062-0.426l0.772-1.01l0.79,0.805l-0.143,0.6l0.797,0.521
		l0.504-0.599l1.121-0.19l1.688,0.379l-0.244,1.169l1.058,0.299l0.473,0.535l1.38-0.361l1.152,0.269l1.111-0.506l2.028,0.916
		l0.244-0.237l0.979,0.664l3.368-0.111l1.602,0.758l0.59-0.143l1.129-0.979l0.718-0.174l1.404,0.27l2.644,1.311l0.812,0.109
		l1.128,5.695l2.643,13.331l3.723,18.771l0.442,2.242l1.381,6.94l1.246,0.188l0.063-0.474l1.333,0.378l0.551-0.93l1.499-0.428
		l0.024,1.405l1.45,0.615l0.364,0.662l3.209,2.019l0.821,1.578l1.263-1.672l0.615-0.19l0.133-0.662l-0.259-0.913l0.434-0.111
		l-0.103-0.836l0.709-0.396l0.979-1.01l1.467,0.854l0.095,0.709l0.466,0.631l0.702-0.017l1.128,0.805l0.592,0.758l1.245,0.331
		l1.642,1.104l-0.143,0.27l2.382,2.177l2.644,2.524l-0.119,0.693l0.916-0.096l0.095,0.946l0.788,0.096l0.442,0.963l0.663-0.301
		l1.68,0.538l0.884-0.097l1.065,0.315l0.282,0.426l0.916-0.205l0.568,0.885l-0.063,0.853l0.395,0.867l0.938,1.277l-0.332,2.113
		l-0.606,1.104l-0.758,0.126l-1.199-1.768l0.402-0.819l-0.41-0.284l-0.188,1.135l-1.238-0.077l-2.241-0.819l-0.354-1.025
		l-0.702-0.19l-0.513-0.835l-0.418,0.3l-0.505-0.853l0.314-0.758l0.498-0.173l-0.379-0.647l0.056-0.836l-1.634-0.553l-0.78-0.884
		l-1.744-0.143l-0.117-0.931l-1.088-1.594l-2.021-1.973l-1.317,0.143l-1.333-1.577l-0.583,0.363l0.748,1.214l0.057,0.567
		l-0.537-0.016l-1.167-0.709l-0.671,0.44l-0.205-1.057l-0.529-0.506l-0.346,0.632l0.732,1.041l-1.206,1.184l-1.167-0.633
		l-0.333,0.176l-1.86-0.82l-0.829-0.632l-0.126-0.44l-1.168-0.727l-0.946-0.157l-0.874-0.426l-1.42-0.363l-1.051-0.646l0.521-0.964
		l-0.955-0.441l-1.057,0.916l-1.68,0.095l-2.737-0.853l-1.641-0.096l-0.946,0.111l-1.934,0.646l-0.465,0.301l-0.631-0.506
		l-1.287-0.235l-0.543-0.506l-0.245-0.757l-0.449,0.062l-0.726,0.664l-1.104-0.568l-0.378-0.679l-0.68-0.489l-0.938-0.143
		l-0.797-0.883l-0.97,0.158l-0.562,0.426l-1.01,0.109l-1.396,0.68l1.088,1.184l0.111,0.504l-0.733,0.962l0.583,0.475l-0.157,0.567
		L156.196,411.004z M79.122,441.342l0.078-0.506l0.789,0.175l0.103,0.552l-1.767,0.694l-0.536-0.426L79.122,441.342z
		 M60.854,436.482l-0.568,0.174l-0.173-0.694l0.613,0.047L60.854,436.482z M54.708,433.391l-0.339,0.41l-0.805,0.047l-0.284-0.41
		L54.708,433.391z M67.778,440.143l-0.347,0.396l-0.749-1.247l0.891,0.017L67.778,440.143z M71.052,440.836l0.127-0.473l0.702,0.11
		l-0.324,0.679l0.907,0.173l-0.213,0.615l-0.662-0.314l-0.908,0.347l-0.156-1.009L71.052,440.836z M146.982,420.359l-0.047,0.535
		l-0.82,0.127l-1.018,0.693l-1.285-0.363l0.993-1.294l0.6-0.108l0.402-1.23l0.474,1.072l1.436,0.095l-0.284,0.914L146.982,420.359z
		 M160.938,409.062l-0.324-0.772l0.275-0.521h0.601l0.213,0.646L160.938,409.062z M158.059,411.84l-0.111-0.536l1.972-2.683
		l0.175,0.474l-0.893,1.2l-0.165,0.914L158.059,411.84z M204.432,428.767l-0.48-0.047l-1.648-1.545l-0.175-0.758l0.331-0.095
		l1.089,1.421l0.568,0.299L204.432,428.767z"/>
	<path fill="#F6F4F2" stroke="#999999" stroke-linejoin="round" d="M250.932,264.743l-2.264,16.423l-2.76,19.939l-2.943,21.313
		l-1.979,14.31l-1.578,11.061l-9.624-1.404l-15.374-2.318l-15.255-8.819l-8.338-4.796l-19.018-11.501l1.783-2.997l2.429-0.126
		l1.198-2.114l-0.361-1.83l-2.044-1.263l0.853-2.556l-0.165-1.987l2.792-1.767l0.788-2.02l0.182-3.439l1.948-2.336l3.778-1.64
		l-1.861-3.14l-0.884-4.135l-1.388-2.604l0.339-1.987l1.128-1.86l-0.244-5.334l1.097-5.772l-0.237-3.093l2.296-0.504l2.247,0.566
		l1.184,2.178l1.003,0.063l1.72-2.241l2.208-11.775l12.408,2.35l17.874,3.021l10.72,1.752L250.932,264.743z"/>
	<path fill="#F6F4F2" stroke="#999999" stroke-linejoin="round" d="M475.72,287.492l0.979,1.072l-5.146,7.51l-0.157,2.65
		l0.994,0.441l-1.373,3.075l-1.184,0.521l0.773,1.295l-1.861,1.229l-0.521,2.051l-1.42,0.457l0.475,3.55l-3.093,2.571l-1.216,2.382
		l0.759,1.168l-3.724,5.646l1.198,3.346l0.773,4.182l-0.82,2.161l-19.957,0.662l-15.271,0.347l-0.157-7.855h-4.308l-1.104-1.198
		l0.142-14.846l0.128-11.153l-2.462-16.312l17.479-0.41l20.067-0.788l14.607-0.757l1.229,2.791l-3.392,4.781L475.72,287.492z"/>
	<path fill="#F6F4F2" stroke="#999999" stroke-linejoin="round" d="M112.188,282.411l2.54,0.096l0.45,1.531l-1.909,0.235
		L112.188,282.411z M100.79,156.013l5.009,1.515l14.097,3.953l13.938,4.125l10.837,2.816l-2.997,11.619l-4.496,17.613l-3.588,13.718
		l10.467,15.752l7.763,11.707l11.831,17.819l7.179,10.836l10.356,15.525l-0.339,1.986l1.388,2.604l0.884,4.135l1.861,3.14
		l-3.778,1.64l-1.948,2.336l-0.182,3.439l-0.788,2.02l-2.792,1.767l0.165,1.987l-0.853,2.556l2.044,1.263l0.361,1.83l-1.198,2.114
		l-2.429,0.126l-16.273-1.939l-13.237-1.562l-1.009-2.777l0.622-2.476l-0.103-3.756l-1.427-3.549l-5.601-7.336l-3.755-1.059
		l0.608-1.389l-0.884-3.028l-3.447-0.442l-4.308-3.279l-0.252-1.689l-2.761-3.14l-3.707-0.884l-2.832-1.719l-3.943-0.646
		l-1.531-2.43l1.412-3.646l-0.489-1.071l1.247-3.015l-2.509-2.587l0.898-2.114l-1.309-1.262l-1.223-2.99l-1.215-0.765l-0.096-1.869
		l-2.736-7.116l-1.641-2.13l0.261-2.681l2.981-4.079l-0.853-2.95l-2.09-0.243l-2.335-4.323l0.671-2.352l-0.584-2.665l1.064-3.708
		l1.31-0.103l-0.355,3.306l2.391,1.972l0.096-2.429l-1.405-2.21l1.79-3.494l-1.088-1.956l-1.159,0.323l-1.317,4.062l-3.92-4.371
		l0.592-3.501l-0.908-3.069l-1.768-2.294l-0.599-2.257l-2.185-4.022l0.931-1.886l-0.063-4.866l1.403-2.392l0.284-4.242l-1.601-4.687
		l-1.973-3.075l0.245-2.652l4.599-5.394l1.104-3.771l2.311-3.889l0.229-4.599l-0.749-0.876L100.79,156.013z"/>
	<path fill="#F6F4F2" stroke="#999999" stroke-linejoin="round" d="M331.864,272.979l-11.146-0.854l-15.438-1.166l-21.558-2.1
		l-23.625-2.887l-9.167-1.229l2.422-17.117l0.024-1.674l1.821-12.47l1.523-11.004l2.279-16.493l15.555,1.986l15.374,1.854
		l14.869,1.499l8.772,0.701l13.038,1.026l8.93,0.606l-0.946,14.798l-1.064,17.583l-0.679,11.382L331.864,272.979z"/>
	<path fill="#F6F4F2" stroke="#999999" stroke-linejoin="round" d="M645.376,187.29l-1.167-1.469l2.239-2.239l-1.009-1.033
		l-1.939-10.98l17.81-4.086l0.097,0.188l2.208,8.489l-0.315,1.529l-3.359,0.868l-2.004,1.411l-5.585,1.104l-1.908,2.518l-2.414,1.27
		L645.376,187.29z"/>
	<path fill="#F6F4F2" stroke="#999999" stroke-linejoin="round" d="M629.664,210.654l-0.854,1.538l0.662,1.893l2.146,1.783
		l1.262,3.629l3.062,3.091l1.356,0.254l1.388,4.575l-7.193,1.42l-4.985-18.048l1.499-2.028l2.319,0.008L629.664,210.654z"/>
	<path fill="#F6F4F2" stroke="#999999" stroke-linejoin="round" d="M615.527,227.18l-1.324-1.886l0.726-1.079l1.734,1.214
		L615.527,227.18z"/>
	<path fill="#F6F4F2" stroke="#999999" stroke-linejoin="round" d="M509.228,369.671l1.072-2.698l-0.188-3.218l-3.093-2.558
		l0.27-1.987l13.473-1.168l18.963-2.177l2.225,4.039l21.803-1.482l11.563-0.79l1.012,2.968l1.497-0.314l-0.047-3.395l-0.662-2.19
		l0.93-1.343l3.093,0.773l3.472-0.031l1.704,6.247l2.729,6.847l5.127,8.678l7.257,9.023l-0.693,0.819l0.979,4.545l3.188,4.731
		l2.557,4.923l2.949,4.844l1.355,3.076l0.442,3.282l0.3,7.098l0.457,4.545l-1.403,1.04l-0.567,3.817l0.6,1.089l-0.867,2.083
		l-3.281,1.529l-5.489,1.861l-1.484-1.293l0.237-2.366l-3.943-5.807l-2.649-0.82l-2.493,0.284l-2.257-5.363l-1.277-1.752
		l-3.438-2.587l0.757-2.539l-2.65,1.04l-5.079-7.257l-1.925-1.878l3.061-6.215l-1.877-0.347l-0.979,2.617l-1.326,0.222l-1.812-2.382
		l1.104-10.57l-1.515-3.644l0.427-0.711l-2.289-3.582l-2.208,0.017l-2.429-1.324l-0.837-1.83l-2.509-1.073l-0.473-2.178l-1.674-0.6
		l-1.562-2.209l-5.315-2.555l-4.086,1.184l-0.963,2.019l-4.922,3.361l-5.522,1.308l-0.062-1.434l-1.529-1.958l-6.422-3.375
		l-5.521-1.61l-4.259-0.076L509.228,369.671z M596.233,441.799l2.192-1.656l1.199,1.421L596.233,441.799z"/>
	<path fill="#F6F4F2" stroke="#999999" stroke-linejoin="round" d="M584.606,354.1l-3.472,0.031l-3.093-0.773l-0.93,1.343
		l0.662,2.19l0.047,3.395l-1.497,0.314l-1.013-2.968l-11.562,0.79l-21.803,1.482l-2.225-4.039l-1.861-3.896l0.457-3.96l-1.734-4.228
		l0.758-2.62l-0.315-1.797l1.861-2.179l-1.42-0.662l0.284-1.517l-3.44-6.151l-5.867-21.17l-2.683-9.498l15.207-1.813l8.33-1.024
		l5.995-1.013l-2.13,3.44l0.048,1.607l4.418,2.541l1.734-0.033l2.335,4.277l2.288,2.713l3.423,1.688l1.594,2.319l3.802,2.239
		l0.097,1.451l2.35,2.397l3.629,1.705l1.215,2.397l0.505,3.028l1.86,0.789l2.289,2.869l0.678,3.22l3.028,0.726l-2.224,5.458
		l-0.144,2.699l-0.93,2.351l0.205,2.397l-1.168,1.215L584.606,354.1z"/>
	<path fill="#F6F4F2" stroke="#999999" stroke-linejoin="round" d="M230.881,394.518l1.83,1.547l-0.513,2.209l-1.546,1.276
		l-4.283-1.625l0.387-2.364l2.042-1.201L230.881,394.518z M249.631,403.021l1.301-1.025l1.769,3.724l2.578,2.305l-2.343,0.599
		l-1.042-0.979l-2.957,0.349l-1.894-4.086L249.631,403.021z M260.77,409.127l5.363,0.883l-0.126,1.672l-2.841-0.804h-3.202
		L260.77,409.127z M264.152,413.448l1.547,0.205l1.237,1.548l-2.224,1.103L264.152,413.448z M269.65,412.062l1.854,1.908l2.089-0.82
		l4.457,2.225l-0.67,2.081l-4.512,1.138l-0.923-0.457l-0.252-2.541l-2.352-0.567l-0.931-1.452L269.65,412.062z M281.176,423.42
		l7.074,3.312l2.564,2.397l-0.11,1.642l3.928,3.028l-2.335,2.65l-2.105,1.072l-2.232,0.188l-2.911,1.893l-2.287,3.252l-2.935-1.753
		l-0.56-1.215l0.48-3.153l-1.19-3.661l-1.317-2.114l1.916-1.893l1.356-2.588l-1.009-2.935L281.176,423.42z"/>
	<path fill="#F6F4F2" stroke="#999999" stroke-linejoin="round" d="M239.652,188.126l-12.069-1.918l-19.94-3.589l-19.374-3.951
		l-12.241-2.762l3.312-14.757l2.619-11.636l2.366-4.323l-2.729-4.291l3.123-4.527l1.264-0.3l1.632-3.266l1.555-1.42l1.158-2.478
		l2.998-3.55l-0.386-2.311l-2.091-1.594l-0.789-2.736l0.434-2.382l-0.741-2.943l1.729-6.823l3.202-14.428l3.833-16.43l9.372,2.058
		l-3.109,14.547l2.279,4.646l-0.788,3.96l3.432,4.182l2.871,4.59l-0.237,1.199l2.683,2.462l-0.149,0.97l2.958,0.457l-1.751,3.533
		l-1.641,4.773l0.252,2.974l-1.79,0.82l-0.442,2.714l1.901,2.256l2.256-1.025l1.948-1.839l1.522,1.83l-0.496,1.121l1.568,6.151
		l1.042,1.239l-0.576,2.816l0.986,1.356l2.114,0.592l0.434,4.89l1.104,0.995l1.285-1.065l3.96,1.246l1.365-1.562l1.719,1.003
		l2.547-0.229l0.373,0.892l2.522-0.371l2.438-2.437l2.888,4.639l-2.643,16.856L239.652,188.126z"/>
	<path fill="#F6F4F2" stroke="#999999" stroke-linejoin="round" d="M493.482,259.441l-1.311,2.1l1.247,2.604l-4.575,1.781
		l-0.348,1.562l1.247,1.861l-1.294,1.356l-4.464-1.988l-1.326,0.302l-1.577,2.695l0.631,0.79l-1.829-0.032l-2.935-4.164l1.009-1.705
		l-1.261-1.985l-0.111-2.241l-4.007-2.966l-1.8-0.757l-4.307-3.471l-0.095-2.406l1.624-3.384l-0.361-1.681l0.993-2.098l-3.896-1.506
		l-0.979,1.427l-1.355-0.671l-1.025-4.804l-3.676-2.705l-3.911-4.031l-1.61-4.408l-0.252-2.975l0.854-2.153l0.63-3.431l2.414-1.035
		l0.188-2.121l1.39-1.736l0.047-2.57l-1.956-2.012l0.6-2.556l4.26-0.979l3.298-2.059l0.158-2.209l1.31-1.072v-4.639l-2.557-1.459
		l-1.057-2.303l-1.879-1.713l19.94-1.111l10.54-0.86l-0.126,2.88l1.956,3.147l2.177,5.284l1.594,18.355l1.437,16.472l-0.979,2.792
		l1.734,3.005l0.254,3.811l-3.093,6.263l-1.578,1.381l-0.44,5.15L493.482,259.441z"/>
	<path fill="#F6F4F2" stroke="#999999" stroke-linejoin="round" d="M493.482,259.441l-0.44-0.979l0.44-5.15l1.577-1.381l3.094-6.263
		l-0.254-3.811l-1.734-3.005l0.979-2.792l-1.436-16.472l-1.594-18.355l2.775,1.034l4.701-2.517l11.202-1.104l10.663-1.246
		l0.111,0.938l1.562,13.157l1.608,14.53l1.137,10.468l-0.758,0.883l1.42,3.802l-1.862,0.301l-2.207,1.632l-3.014,0.009l0.646,2.098
		l-3.816,4.543l-1.104,1.996l-0.221,2.358l-2.604,0.188l-2.226-2.523l-1.451,4.021l-1.607,1.333l-1.736-1.79l-2.588,1.452
		l-0.899,1.916l-3.106-1.956l-3.188,1.862l-0.253-1.097L493.482,259.441z"/>
	<path fill="#F6F4F2" stroke="#999999" stroke-linejoin="round" d="M404.584,221.942l-1.34-2.154l0.835-2.279l-0.741-2.478
		l-0.6-6.089l-1.799-1.239l0.34-3.557l-0.68-2.729l-1.545-1.081l-1.807-6.578l-2.004-3.195l1.325-5.072l0.765-1.064l-1.277-1.499
		l1.159-4.077h9.908l16.407-0.214l12.524-0.346l16.628-0.703l0.144,1.98l1.751,1.562l-1.136,1.838l0.504,3.36l1.073,2.429
		l3.63,1.207l0.977,1.933l1.879,1.713l1.056,2.303l2.558,1.459v4.639l-1.311,1.072l-0.157,2.209l-3.299,2.059l-4.259,0.979
		l-0.6,2.556l1.956,2.012l-0.047,2.57l-1.39,1.736l-0.188,2.121l-2.414,1.035l-0.63,3.431l-3.582-3.313l-16.927,1.12l-13.537,0.466
		L404.584,221.942z"/>
	<path fill="#F6F4F2" stroke="#999999" stroke-linejoin="round" d="M418.073,275.014l-21.882,0.109l-21.503-0.331l-15.066-0.474
		l-12.613-0.553l-15.145-0.787l0.985-15.558l0.679-11.382l1.064-17.583l17.621,0.979l17.095,0.662l20.982,0.442l19.451,0.079
		l1.15,1.317l3.108,1.751l-1.909,3.834l2.035,2.177l1.136,2.555l2.445,1.334l0.19,19.941L418.073,275.014z"/>
	<path fill="#F6F4F2" stroke="#999999" stroke-linejoin="round" d="M545.514,271.7l-0.126,0.299l-9.924,1.042l-7.573,0.475
		l-7.415,0.866l-7.888,0.363l-15.618,1.733l-2.555-0.44l0.425,2.62l-15.902,1.229l0.349-1.767l1.767,0.567l1.089-5.961l-0.427-0.223
		l-0.631-0.79l1.577-2.696l1.326-0.301l4.464,1.988l1.294-1.355l-1.247-1.863l0.348-1.562l4.575-1.782l-1.247-2.603l1.311-2.099
		l3.817-1.918l0.253,1.098l3.188-1.862l3.106,1.956l0.899-1.916l2.588-1.451l1.736,1.789l1.607-1.332l1.451-4.022l2.225,2.524
		l2.604-0.189l0.221-2.358l1.104-1.995l3.816-4.543l-0.646-2.098l3.014-0.009l2.207-1.632l1.862-0.301l-1.42-3.802l0.758-0.883
		l2.161,0.165l2.035-0.836l1.799,1.412l1.388,2.832l4.055,0.196l2.413,1.617l1.516-1.333l2.775,1.263l1.61-0.679l2.539-2.319
		l0.898,2.311l3.173,2.146l0.536,2.311l-0.457,1.909l2.303,2.011l-0.301,0.808l3.014,3.541l2.823,1.553l1.058-0.196l-3.755,4.614
		l-3.943,2.775l-1.389,3.629l-2.146,0.853l-0.505,1.704L545.514,271.7z"/>
	<path fill="#F6F4F2" stroke="#999999" stroke-linejoin="round" d="M429.558,382.812l-1.166-1.53l2.936-5.128l-1.074-2.807
		l0.854-1.675l-0.442-1.894l2.114-3.754l0.379-2.936l-0.458-2.365l-2.352-4.639l-1.135-0.727l-0.128-3.219l-2.792-3.281
		l-0.362-15.051l15.271-0.347l19.957-0.662l1.245,1.624l-0.993,2.193l0.269,2.051l1.94,1.357v2.019l1.12,0.363l-1.735,4.874
		l-3.155,2.604l-0.632,4.213l-1.355,0.631l0.188,3.756l-1.246,2.396l0.078,1.735l23.776-1.263l-1.2,4.985l2.288,2.949l0.662,2.353
		l1.642,1.45l-3.597,2.304l-0.205,1.42l3.138,0.773l1.2-2.479l1.482,1.057l-0.378,3.33l-2.872,0.062l0.505,1.324l-0.853,2.035
		l2.54,1.846l3.976,0.254l2.478,3.027l-1.704,1.941l-4.228-2.746l-4.797-1.12l0.032-2.304l-2.479,0.773l-0.109,3.581l-1.42,1.229
		l-1.355-0.44l-0.807-1.925l-2.98,0.047l-0.914,2.352l-2.462,1.041l-1.641-1.594l-4.118-0.773l0.614-2.775l-3.849-1.215
		l-1.451-2.934l-4.497-1.201l-2.191,2.021l0.505,1.088l-2.461,1.42l-4.435-0.662l-4.181-1.703l-3.218-0.82l-6.532,0.758
		L429.558,382.812z M455.399,385.115l-2.683-1.231l1.325-1.041l1.925,0.757L455.399,385.115z"/>
	<path fill="#F6F4F2" stroke="#999999" stroke-linejoin="round" d="M397.217,178.85l0.071-14.176l0.055-12.298L395,150.721
		l-1.812-2.888l2.87-3.219l0.189-1.601l-0.331-5.781l-1.35-2.217l-0.655-2.715l-0.417-13.764l-2.801-8.259l-0.11-5.411l0.639-2.067
		l-1.215-4.56l20.241,0.04l-0.032-5.593l3.219,1.311l1.403,7.438l4.37,1.76l3.944,0.244l0.538,1.648l3.186-0.521l2.509-1.451
		l4.748,1.349l0.79,1.435l1.45-0.212l1.483,3.281l0.993-1.995l2.02-0.158l0.552,1.356l2.904,0.813l0.094,1.214l2.841,0.844
		l5.679-3.061l0.854,1.996l6.216-0.568l4.447,2.201l-2.634,1.807l-5.476,2.208l-1.893,1.247l-4.133,3.983l-2.919,3.659l-5.98,5.214
		l0.854,1.152l-0.79-0.584l-1.956,1.886l0.315,8.061l-0.567,0.884l-3.598,1.895l-1.547,2.681l-0.079,2.098l2.511,1.847l-1.074,2.256
		l0.222,5.214l-0.474,2.729l2.762,2.619l2.145,0.087l1.437,1.68l3.25,1.76l0.442,1.585l3.219,2.413l1.481,0.34l2.225,3.233
		l0.489,4.023l-16.629,0.703l-12.524,0.346l-16.407,0.214H397.217L397.217,178.85z"/>
	<path fill="#F6F4F2" stroke="#999999" stroke-linejoin="round" d="M498.074,369.291l-1.311,0.807l-3.061-0.128l-1.326-0.821
		l-2.161,0.539l-4.937,2.254l-1.23,1.152l-1.642-1.451l-0.662-2.352l-2.288-2.949l1.2-4.984l-23.776,1.262l-0.078-1.735l1.246-2.397
		l-0.188-3.754l1.355-0.633l0.632-4.211l3.155-2.604l1.735-4.874l-1.12-0.363v-2.02l-1.94-1.356l-0.269-2.051l0.993-2.193
		l-1.245-1.624l0.819-2.16l-0.772-4.183l-1.198-3.345l3.723-5.647l-0.758-1.168l1.215-2.382l3.094-2.57l-0.475-3.551l1.42-0.457
		l0.521-2.051l1.861-1.23l-0.773-1.293l10.429-0.633l14.688-1.15l1.34,1.437l-0.331,12.856l-0.268,14.216L495.345,347
		L498.074,369.291z"/>
	<path fill="#F6F4F2" stroke="#999999" stroke-linejoin="round" d="M477.486,279.982l0.488,1.83l-0.74,3.724l-1.516,1.956
		l-7.558,0.568l3.392-4.781l-1.229-2.791l-14.607,0.757l-20.067,0.788l-17.479,0.41l-0.095-7.432l-0.173-11.484l-0.19-19.94
		l-2.445-1.334l-1.136-2.555l-2.035-2.177l1.909-3.834l-3.108-1.751l-1.15-1.317l-1.199-0.577l-0.631-2.807l-1.578-1.279
		l-1.751-4.014l14.151,0.118l13.536-0.466l16.928-1.12l3.582,3.313l-0.854,2.153l0.252,2.975l1.61,4.408l3.911,4.031l3.676,2.705
		l1.025,4.804l1.355,0.671l0.979-1.427l3.896,1.506l-0.993,2.098l0.361,1.681l-1.624,3.383l0.095,2.406l4.307,3.471l1.8,0.758
		l4.007,2.966l0.111,2.241l1.261,1.986l-1.009,1.703l2.935,4.166l1.829,0.031l0.427,0.223l-1.089,5.961l-1.767-0.567l-0.349,1.767
		l-0.789,0.049L477.486,279.982z"/>
	<path fill="#F6F4F2" stroke="#999999" stroke-linejoin="round" d="M404.584,221.942l1.751,4.014l1.578,1.279l0.631,2.807
		l1.199,0.577l-19.451-0.079l-20.981-0.442l-17.096-0.662l-17.621-0.979l0.946-14.798l-8.93-0.606l-13.038-1.026l1.158-13.022
		l1.396-16.432l9.757,0.781l16.062,1.16l10.594,0.527l12.407,0.537l10.365,0.322l0.308,0.75l5.489,2.776l1.325-1.419l1.522,0.394
		l4.078-0.308l1.846,1.429l3.494,1.072l2.138,2.95l1.736,0.213l1.807,6.578l1.545,1.081l0.68,2.729l-0.34,3.557l1.799,1.239
		l0.6,6.089l0.741,2.478l-0.835,2.279L404.584,221.942z"/>
	<path fill="#F6F4F2" stroke="#999999" stroke-linejoin="round" d="M651.845,159.161l-1.168-0.939l0.284-3.146l-0.583-1.933
		l-0.741-6.414l1.104-3.683l0.363-5.072l-0.711-2.713l2.146-1.065l1.799-2.762l-1.452-3.359l0.788-2.636l-0.473-1.412l0.347-3.445
		l2.714-1.832l3.029,9.111l5.82,18.569l1.94,1.143l0.189,1.452l1.498,0.615l-0.427,2.981l-3.027,1.634l-1.247,2.207L651.845,159.161
		z"/>
	<path fill="#F6F4F2" stroke="#999999" stroke-linejoin="round" d="M239.407,347.789l1.578-11.061l1.979-14.31l2.943-21.313
		l2.76-19.939l2.264-16.423l9.167,1.229l23.625,2.887l21.558,2.1l15.438,1.166l-0.536,7.368l-0.419-0.031l-1.428,18.476
		l-1.365,18.395l-1.316,14.797l-1.097,14.734l-18.183-1.481l-11.034-1.058l-14.665-1.547l-0.497,1.437l1.247,1.847l-20.69-2.492
		l-0.907,6.578L239.407,347.789z"/>
	<path fill="#F6F4F2" stroke="#999999" stroke-linejoin="round" d="M396.247,143.014l-12.486-0.149l-15.036-0.48l-22.109-1.059
		l-15.286-1.032l-11.493-0.907l1.096-12.89l1.452-16.588l1.185-14.917L341.4,96.34l10.626,0.63l11.814,0.562l10.199,0.362
		l15.966,0.347l1.215,4.56l-0.639,2.067l0.11,5.411l2.801,8.259l0.417,13.764l0.655,2.715l1.35,2.217L396.247,143.014z"/>
	<path fill="#F6F4F2" stroke="#999999" stroke-linejoin="round" d="M418.168,282.443l2.462,16.312l-0.128,11.153l-0.142,14.846
		l-4.623-1.546l-1.703-1.752l-2.714-1.341l-0.757,1.247l-3.028-0.063l-0.222-0.741l-3.346,1.42l-1.197-0.758l-2.55,0.758
		l-2.39,2.178l-0.97-1.277l-2.484-1.184l-3.03-0.223l-2.609,1.01l-5.939-1.672l-1.002-1.293l-2.366,2.02l-0.932-2.035l-1.729-0.283
		l-0.93-1.625l-2.358-0.727l-1.491,1.357l-1.049-1.295l-2.168,0.299l-2.706-1.436l-2.479-0.047l-0.765-2.84l-3.812-0.301
		l-1.412,0.442l-2.217-2.587l-1.332-0.222l0.386-9.183l0.829-19.498l-12.699-0.601l-22.387-1.468l0.536-7.368l11.146,0.854
		l15.145,0.787l12.613,0.553l15.066,0.474l21.503,0.331l21.882-0.109L418.168,282.443z"/>
	<path fill="#F6F4F2" stroke="#999999" stroke-linejoin="round" d="M176.027,175.906l-17.638-4.007l-13.719-3.478l-10.837-2.816
		l-13.938-4.125l-14.097-3.953l-5.009-1.515l-0.93-1.758l0.039-3.573l1.546-3.377l-0.545-4.275l1.703-1.941l1.909-3.597l2.793-3.589
		l1.712-3.353l4.771-11.643l0.308-1.624l2.571-4.979l2.588-7.106l0.647-4.181l1.167-3.076l4.527-0.009l2.139,2.391l1.782-0.071
		l1.641,2.012l0.379,1.987l-0.75,4.403l4.631,3.027l4.97-1.032l2.815,0.48l2.935,1.61l0.103,1.049l5.939-0.529l1.121,0.979
		l3.021,0.41l2.8-0.757l4.71-0.119l4.03,0.671l1.61-0.615l20.587,4.891l0.789,2.736l2.091,1.594l0.386,2.311l-2.998,3.55
		l-1.158,2.478l-1.555,1.42l-1.632,3.266l-1.264,0.3l-3.123,4.527l2.729,4.291l-2.366,4.323l-2.619,11.636L176.027,175.906z"/>
	<path fill="#F6F4F2" stroke="#999999" stroke-linejoin="round" d="M612.167,302.417l-1.877,1.104l-2.256,2.807l-1.814,4.275
		l0.031,3.062l-1.655,2.81l-2.004-0.064l-0.331,1.988l-3.14,2.762l-1.168,2.303l-3.786,2.713h-1.735l0.489,2.604l-2.099,1.215
		l-2.367,3.723l-3.028-0.726l-0.678-3.219l-2.289-2.871l-1.86-0.788l-0.505-3.028l-1.215-2.398l-3.629-1.703l-2.351-2.398
		l-0.096-1.451l-3.802-2.24l-1.594-2.318l-3.423-1.688l-2.288-2.714l-2.335-4.276l-1.734,0.031l-4.418-2.539l-0.048-1.608l2.13-3.44
		l7.289-3.689l2.16-0.647l14.578-1.466l1.371,0.41l2.178,2.255l0.128,1.703l13.282-1.972L612.167,302.417z"/>
	<path fill="#F6F4F2" stroke="#999999" stroke-linejoin="round" d="M397.249,193.758l-1.736-0.213l-2.138-2.95l-3.494-1.072
		l-1.846-1.429l-4.078,0.308l-1.522-0.394l-1.325,1.419l-5.489-2.776l-0.309-0.75l-10.364-0.322l-12.407-0.537l-10.594-0.527
		l-16.062-1.16l-9.757-0.781l1.02-12.542l1.38-16.785l0.188-0.024l1.121-13.835l11.493,0.907l15.286,1.032l22.109,1.059l15.036,0.48
		l12.486,0.149l-0.189,1.601l-2.871,3.219l1.813,2.888l2.343,1.655l-0.055,12.298l-0.071,14.176l-1.159,4.077l1.277,1.499
		l-0.765,1.064l-1.325,5.072L397.249,193.758z"/>
	<path fill="#F6F4F2" stroke="#999999" stroke-linejoin="round" d="M651.845,159.161l-8.424,1.837l-2.557-11.232l-2.257-1.104
		l0.348-2.168l-1.877-3.699l0.536-3.605l-0.741-3.25l-1.277-1.476v-2.579l-0.898-3.124l10.412-2.508l8.093-2.226l0.473,1.412
		l-0.788,2.636l1.452,3.359l-1.799,2.762l-2.146,1.065l0.712,2.713l-0.364,5.072l-1.104,3.683l0.741,6.414l0.583,1.933l-0.284,3.146
		L651.845,159.161z"/>
	<path fill="#F6F4F2" stroke="#999999" stroke-linejoin="round" d="M637.915,234.002l-0.995,2.896l-1.324,1.104l-0.506,5.451
		l-1.703,5.331l-1.595-0.97l-0.394-1.83l0.315-4.473l1.704-4.014l-0.062-1.303l0.361-0.757L637.915,234.002z M563.214,255.206
		l-0.158,0.946l2.052,2.548l3.504,0.678l2.002-2.278l1.783,1.271l3.532-1.769l4.039-3.179l0.554,0.79l1.782-1.555l0.632-1.909
		l-1.041-0.797l1.088-2.909l1.529-2.028l0.253-2.146l2.114-4.867l0.094-2.461l2.24,1.633l1.987,0.363l2.397-7.045l1.643,1.011
		l4.068-6.863l-0.157-4.441l6.657,3.755l0.646-2.997l3.203,0.852l-0.567,1.293l5.111,2.193l1.324,1.886l-0.536,2.478l-1.167,0.914
		l-0.505,2.209l0.836,1.529l2.887-1.135l1.026,2.209l4.102,0.173l1.467,1.515l3.533,1.38l-0.565,4.315l2.05,2.957l-1.263,1.832
		l0.188,1.829l1.704,0.79l-1.262,2.12l-2.809-1.78l-0.378,1.049l2.365,1.078l5.679-0.779l2.619,5.08l-11.942,2.627l-18.315,3.597
		l-11.453,2.082l-9.086,1.515l-16.045,1.879l-14.025,1.955l-9.118,1.104l5.964-2.919l0.505-1.704l2.146-0.853l1.389-3.629
		l3.943-2.775L563.214,255.206z"/>
	<path fill="#F6F4F2" stroke="#999999" stroke-linejoin="round" d="M563.214,255.206l-1.058,0.196l-2.823-1.553l-3.014-3.541
		l0.301-0.808l-2.303-2.011l0.457-1.909l-0.536-2.311l3.012-0.853l0.079-1.939l1.121-0.41l-0.79-2.904l1.862-3.753l1.688,2.059
		l0.995-1.492l-0.222-3.154l1.893-1.633l0.979-2.287l2.649-0.072l3.219-4.039l-0.126-1.955l0.885-3.415l-0.254-1.508l0.945-3.81
		l-1.355-3.645l1.451-1.198l2.209,13.409l11.502-1.956l1.229,7.573l1.939-1.775l1.703-2.746h1.642l1.294-2.681l3.817,0.599
		l1.01-2.043l1.673-1.119l4.858,2.153l1.31,2.279l-0.646,2.997l-6.657-3.755l0.157,4.441l-4.068,6.863l-1.643-1.011l-2.397,7.045
		l-1.987-0.363l-2.24-1.633L586.88,238l-2.114,4.867l-0.253,2.146l-1.529,2.028l-1.089,2.909l1.041,0.797l-0.631,1.909l-1.783,1.555
		l-0.553-0.79l-4.039,3.179l-3.533,1.769l-1.782-1.271l-2.002,2.278l-3.505-0.679l-2.051-2.547L563.214,255.206z"/>
	<path fill="#F6F4F2" stroke="#999999" stroke-linejoin="round" d="M259.002,205.985l-15.776-2.217l-5.916-0.972l2.343-14.671
		l3.061-19.176l2.643-16.856l1.183-7.685l3.55,0.688l16.462,2.217l8.536,1.23l20.667,2.578l22.772,2.123l-1.38,16.785l-1.02,12.542
		l-1.396,16.432l-1.158,13.022l-8.772-0.701l-14.869-1.499l-15.374-1.854L259.002,205.985z"/>
</g>
<text transform="matrix(1 0 0 1 764.7148 88.6167)"><tspan x="0" y="0" font-family="'DIN'" font-size="12">Convictions</tspan><tspan x="0" y="21.4" font-family="'DIN'" font-size="12">Demand Fighting Grades</tspan><tspan x="0" y="42.8" font-family="'DIN'" font-size="12">Victim Protectio</tspan><tspan x="84.599" y="42.8" font-family="'DIN'" font-size="12">n</tspan><tspan x="91.103" y="42.8" font-family="'DIN'" font-size="12"> Grades</tspan></text>
<rect x="745.443" y="80.416" fill="#FFFFFF" stroke="#000000" stroke-miterlimit="10" width="7.473" height="7.472"/>
<rect x="745.443" y="101.25" fill="#FFFFFF" stroke="#000000" stroke-miterlimit="10" width="7.473" height="7.472"/>
<rect x="745.443" y="123.378" fill="#FFFFFF" stroke="#000000" stroke-miterlimit="10" width="7.473" height="7.472"/>
<polyline fill="none" stroke="#000000" stroke-miterlimit="10" points="747.582,84.152 749.18,85.834 750.915,82.071 "/>
<polyline fill="none" stroke="#000000" stroke-miterlimit="10" points="747.582,105.186 749.18,106.868 750.915,103.104 "/>
</svg>
